<svg width="71" height="27" viewBox="0 0 71 27" fill="none" xmlns="http://www.w3.org/2000/svg">
<path d="M46.2327 26.6004H51.7276V15.3858C51.7276 12.9632 53.5256 11.2646 55.9488 11.2646C56.4485 11.2646 57.4226 11.3394 58.0217 11.4895V6.44425C57.6221 6.39421 57.1724 6.36951 56.5479 6.36951C54.4497 6.36951 52.5015 7.71852 51.7776 10.2158H51.5781V6.76915H46.2327V26.601V26.6004ZM32.2453 27C34.918 27 36.9162 25.8258 37.865 24.0277H38.0645V26.6004H43.2845V13.4376C43.2845 9.06692 39.6631 6.36889 34.6426 6.36889C29.6221 6.36889 26.0753 9.21639 25.601 13.5371L30.5214 13.5124C31.1706 11.3394 32.8445 10.44 34.4678 10.44C36.3912 10.44 37.7896 11.5642 37.7896 13.437V18.5322C37.7896 21.4545 36.091 23.1278 33.1187 23.1278C31.745 23.1278 30.8457 22.4032 30.8457 21.0295C30.8457 19.5557 32.0693 18.7565 33.1935 18.5569L38.3888 17.6329V13.9861L32.2941 15.0349C28.3978 15.7094 25.4502 17.4081 25.4502 21.3291C25.4502 25.2501 28.3225 26.9988 32.2441 26.9988L32.2453 27ZM12.3134 27C18.9572 27 23.1784 22.5793 23.7782 17.6335L18.1332 17.5835C17.6335 20.3809 15.4858 22.0542 12.4135 22.0542C7.64316 22.0542 5.66968 18.258 5.66968 13.5124C5.66968 8.76672 7.81798 4.94514 12.4382 4.94514C15.5606 4.94514 17.7336 6.7185 18.1332 9.61603H23.8029C23.1537 3.79626 18.7324 0 12.3134 0C4.59554 0 0 5.86981 0 13.5124C0 21.5552 4.6709 27 12.3134 27ZM60.3442 0.374314H65.8391V20.006C65.8391 20.7306 66.0139 21.2296 66.3635 21.5545C66.6884 21.9042 67.2875 22.0542 68.1368 22.0542H70.1103V26.6004H67.2128C62.6173 26.6004 60.3442 24.3773 60.3442 19.9566V0.374314Z" fill="#002E1C"/>
</svg>
