<svg width="160" height="31" viewBox="0 0 160 31" fill="none" xmlns="http://www.w3.org/2000/svg">
<path d="M52.3102 7.73865C53.2941 7.73865 54.1766 7.85562 54.9575 8.08957C55.7385 8.32007 56.4008 8.65379 56.9444 9.09072C57.4879 9.52421 57.9042 10.054 58.1932 10.6802C58.4822 11.3063 58.6267 12.015 58.6267 12.8063H54.9937C54.9937 12.4864 54.9283 12.1991 54.7976 11.9445C54.6703 11.6899 54.4879 11.4732 54.2505 11.2943C54.0132 11.1154 53.7259 10.9795 53.3887 10.8866C53.0516 10.7903 52.6749 10.7421 52.2586 10.7421C52.0281 10.7421 51.8044 10.7576 51.5877 10.7885C51.3744 10.8161 51.1714 10.8608 50.9787 10.9227C50.7861 10.9812 50.6089 11.0552 50.4472 11.1446C50.289 11.2306 50.1531 11.3321 50.0395 11.4491C49.926 11.5626 49.8365 11.6899 49.7712 11.831C49.7092 11.972 49.6783 12.1269 49.6783 12.2954C49.6783 12.4675 49.7058 12.6171 49.7609 12.7444C49.8159 12.8717 49.8985 12.9818 50.0086 13.0747C50.1221 13.1676 50.2631 13.2484 50.4317 13.3172C50.6037 13.3826 50.8033 13.4428 51.0304 13.4978C51.2574 13.5495 51.5137 13.5976 51.7993 13.6423C52.0848 13.6871 52.4013 13.7352 52.7488 13.7868L53.27 13.8642C53.6794 13.9227 54.1078 13.9915 54.555 14.0707C55.0023 14.1464 55.4409 14.2496 55.871 14.3803C56.3045 14.5076 56.7156 14.6727 57.1043 14.8757C57.4965 15.0753 57.8389 15.3298 58.1313 15.6395C58.4272 15.9457 58.6628 16.3155 58.8383 16.749C59.0137 17.1825 59.1015 17.6985 59.1015 18.2972C59.1015 19.0747 58.9467 19.7645 58.637 20.3666C58.3274 20.9652 57.8836 21.4692 57.3056 21.8786C56.7276 22.2846 56.0258 22.5925 55.2001 22.8024C54.3778 23.0122 53.4524 23.1171 52.4237 23.1171C51.3228 23.1171 50.3509 23.0002 49.508 22.7662C48.6685 22.5288 47.9633 22.1865 47.3922 21.7393C46.8211 21.292 46.3893 20.7467 46.0969 20.1034C45.8044 19.4566 45.6582 18.7272 45.6582 17.9153H49.2912C49.2912 18.2628 49.3618 18.5724 49.5028 18.8442C49.6473 19.116 49.8537 19.3465 50.1221 19.5357C50.3904 19.7249 50.7173 19.8694 51.1026 19.9692C51.4879 20.0655 51.9231 20.1137 52.4082 20.1137C52.8211 20.1137 53.2047 20.0776 53.559 20.0053C53.9134 19.9331 54.2196 19.8264 54.4776 19.6854C54.7391 19.5409 54.9438 19.3637 55.0917 19.1538C55.2431 18.9405 55.3188 18.6945 55.3188 18.4159C55.3188 18.2301 55.2895 18.0701 55.2311 17.9359C55.176 17.7983 55.09 17.6813 54.973 17.585C54.8595 17.4852 54.7184 17.401 54.5499 17.3321C54.3813 17.2633 54.1852 17.2031 53.9616 17.1515C53.7379 17.0999 53.4868 17.0535 53.2081 17.0122C52.9294 16.9709 52.6267 16.9279 52.2999 16.8832L51.6032 16.7851C51.2075 16.7335 50.7912 16.6733 50.3543 16.6045C49.9174 16.5323 49.4873 16.4359 49.0642 16.3155C48.641 16.1951 48.2368 16.0403 47.8514 15.8511C47.4696 15.6584 47.1324 15.4159 46.84 15.1234C46.5475 14.8276 46.3153 14.4715 46.1433 14.0552C45.9713 13.6355 45.8853 13.1366 45.8853 12.5586C45.8853 12.0357 45.9575 11.554 46.102 11.1137C46.2499 10.6733 46.4581 10.2759 46.7264 9.92157C46.9982 9.56377 47.3251 9.24898 47.7069 8.97719C48.0923 8.7054 48.5223 8.47833 48.9971 8.29599C49.4753 8.11021 49.9931 7.97087 50.5504 7.87798C51.1078 7.78509 51.6943 7.73865 52.3102 7.73865Z" fill="#02155A"/>
<path d="M62.8087 17.3992C62.8087 17.8637 62.8655 18.2783 62.979 18.6429C63.096 19.0076 63.2646 19.3172 63.4847 19.5718C63.7049 19.8264 63.9715 20.0208 64.2846 20.155C64.6011 20.2857 64.9589 20.3511 65.358 20.3511C65.6195 20.3511 65.8603 20.3218 66.0805 20.2634C66.3041 20.2014 66.5054 20.1103 66.6843 19.9898C66.8666 19.8694 67.0266 19.7198 67.1642 19.5409C67.3018 19.362 67.4222 19.1521 67.5255 18.9113H70.8385C70.6768 19.565 70.4274 20.1515 70.0903 20.671C69.7531 21.1905 69.3437 21.6326 68.862 21.9973C68.3804 22.3585 67.8334 22.6355 67.221 22.8282C66.612 23.0208 65.9566 23.1171 65.2548 23.1171C64.3878 23.1171 63.5965 22.9727 62.8809 22.6837C62.1654 22.3912 61.5512 21.9818 61.0386 21.4554C60.526 20.9291 60.1286 20.2978 59.8465 19.5615C59.5679 18.8218 59.4285 18.0047 59.4285 17.1102C59.4285 16.2157 59.5679 15.4021 59.8465 14.6693C60.1252 13.9331 60.5174 13.3017 61.0231 12.7754C61.5289 12.249 62.1361 11.8413 62.8448 11.5523C63.5535 11.2633 64.3362 11.1188 65.1929 11.1188C66.0495 11.1188 66.8271 11.2633 67.5255 11.5523C68.2239 11.8379 68.8208 12.2421 69.3162 12.765C69.815 13.2845 70.2004 13.9124 70.4721 14.6487C70.7474 15.3849 70.885 16.2037 70.885 17.1051C70.885 17.2427 70.8815 17.3838 70.8747 17.5283C70.8678 17.6727 70.8557 17.8155 70.8385 17.9566H61.4721V15.9956H68.893L67.5616 17.9153C67.5719 17.7708 67.5788 17.6315 67.5822 17.4973C67.5891 17.3597 67.5925 17.2289 67.5925 17.1051C67.5925 16.5581 67.5427 16.0799 67.4429 15.6704C67.3431 15.261 67.1935 14.9187 66.9939 14.6435C66.7944 14.3683 66.5467 14.1636 66.2508 14.0294C65.9549 13.8918 65.6109 13.823 65.2187 13.823C64.8299 13.823 64.4859 13.8883 64.1866 14.0191C63.8873 14.1498 63.6361 14.3425 63.4331 14.597C63.2301 14.8482 63.0753 15.1595 62.9687 15.5311C62.862 15.9027 62.8087 16.3293 62.8087 16.8109V17.3992Z" fill="#02155A"/>
<path d="M74.794 17.1154C74.794 17.5867 74.8438 18.003 74.9436 18.3643C75.0434 18.7255 75.1896 19.03 75.3823 19.2777C75.5749 19.522 75.8106 19.7077 76.0893 19.835C76.3679 19.9623 76.6862 20.026 77.044 20.026C77.3398 20.026 77.5996 19.983 77.8232 19.897C78.0468 19.8109 78.2395 19.6888 78.4012 19.5306C78.5629 19.3723 78.6953 19.1814 78.7986 18.9577C78.9018 18.7341 78.9792 18.4847 79.0308 18.2094H82.6071C82.5176 18.9422 82.3198 19.6097 82.0136 20.2117C81.7074 20.8138 81.3118 21.3316 80.8267 21.7651C80.345 22.1951 79.7842 22.5288 79.1443 22.7662C78.5044 23.0002 77.8043 23.1171 77.044 23.1171C76.4729 23.1171 75.931 23.0535 75.4184 22.9262C74.9058 22.7989 74.431 22.6149 73.9941 22.374C73.5606 22.1298 73.1684 21.8339 72.8175 21.4864C72.47 21.1355 72.1741 20.7381 71.9298 20.2943C71.6856 19.8505 71.4981 19.362 71.3673 18.8287C71.2366 18.292 71.1712 17.7209 71.1712 17.1154C71.1712 16.5099 71.2366 15.9405 71.3673 15.4073C71.4981 14.874 71.6856 14.3855 71.9298 13.9417C72.1741 13.4944 72.47 13.097 72.8175 12.7496C73.1649 12.3986 73.5571 12.1028 73.9941 11.8619C74.431 11.6211 74.9058 11.4371 75.4184 11.3098C75.931 11.1825 76.4729 11.1188 77.044 11.1188C77.8043 11.1188 78.5044 11.2375 79.1443 11.4749C79.7877 11.7088 80.3502 12.0408 80.8318 12.4709C81.3135 12.9009 81.7074 13.4187 82.0136 14.0242C82.3198 14.6263 82.5176 15.2937 82.6071 16.0265H79.0308C78.9792 15.7513 78.9018 15.5019 78.7986 15.2782C78.6953 15.0546 78.5629 14.8637 78.4012 14.7054C78.2395 14.5472 78.0468 14.425 77.8232 14.339C77.5996 14.253 77.3398 14.21 77.044 14.21C76.6862 14.21 76.3679 14.2737 76.0893 14.4009C75.8106 14.5248 75.5749 14.7106 75.3823 14.9583C75.1896 15.2026 75.0434 15.5053 74.9436 15.8665C74.8438 16.2278 74.794 16.6441 74.794 17.1154Z" fill="#02155A"/>
<path d="M90.5521 17.3063V11.4285H94.1438V22.8075H90.5521V19.2622L90.5624 19.2467C90.4557 19.8832 90.2923 20.4423 90.0721 20.9239C89.852 21.4056 89.5784 21.8098 89.2516 22.1366C88.9248 22.46 88.5446 22.7043 88.1111 22.8694C87.6776 23.0346 87.196 23.1171 86.6662 23.1171C86.0675 23.1171 85.5446 23.0139 85.0974 22.8075C84.6501 22.5977 84.2751 22.2863 83.9723 21.8735C83.673 21.4572 83.4477 20.9394 83.2963 20.3201C83.1449 19.7009 83.0692 18.9818 83.0692 18.163V11.4285H86.661V17.3889C86.661 17.8327 86.6988 18.2198 86.7745 18.55C86.8502 18.8769 86.9655 19.1504 87.1203 19.3706C87.2751 19.5908 87.4678 19.7559 87.6983 19.866C87.9322 19.9726 88.2057 20.026 88.5188 20.026C88.739 20.026 88.9403 20.0002 89.1226 19.9486C89.3084 19.8935 89.477 19.8161 89.6283 19.7163C89.7797 19.6131 89.9122 19.4858 90.0257 19.3345C90.1427 19.1796 90.239 19.0025 90.3147 18.8029C90.3938 18.5999 90.4523 18.3746 90.4901 18.1269C90.5314 17.8757 90.5521 17.6022 90.5521 17.3063Z" fill="#02155A"/>
<path d="M98.4755 17.8276V22.8075H94.8837V11.4285H98.4755V15.6034L98.4652 15.6188C98.5512 14.9789 98.6802 14.4009 98.8522 13.8849C99.0277 13.3688 99.2564 12.9285 99.5385 12.5638C99.8207 12.1991 100.163 11.9187 100.566 11.7226C100.968 11.5265 101.439 11.4285 101.979 11.4285H102.733V14.7931H101.205C100.669 14.7931 100.225 14.8534 99.874 14.9738C99.5231 15.0942 99.2444 15.2782 99.038 15.5259C98.8316 15.7737 98.6853 16.0885 98.5993 16.4703C98.5168 16.8522 98.4755 17.3046 98.4755 17.8276Z" fill="#02155A"/>
<path d="M106.171 17.3992C106.171 17.8637 106.228 18.2783 106.341 18.6429C106.458 19.0076 106.627 19.3172 106.847 19.5718C107.067 19.8264 107.334 20.0208 107.647 20.155C107.964 20.2857 108.321 20.3511 108.72 20.3511C108.982 20.3511 109.223 20.3218 109.443 20.2634C109.667 20.2014 109.868 20.1103 110.047 19.9898C110.229 19.8694 110.389 19.7198 110.527 19.5409C110.664 19.362 110.785 19.1521 110.888 18.9113H114.201C114.039 19.565 113.79 20.1515 113.453 20.671C113.116 21.1905 112.706 21.6326 112.225 21.9973C111.743 22.3585 111.196 22.6355 110.583 22.8282C109.975 23.0208 109.319 23.1171 108.617 23.1171C107.75 23.1171 106.959 22.9727 106.243 22.6837C105.528 22.3912 104.914 21.9818 104.401 21.4554C103.888 20.9291 103.491 20.2978 103.209 19.5615C102.93 18.8218 102.791 18.0047 102.791 17.1102C102.791 16.2157 102.93 15.4021 103.209 14.6693C103.488 13.9331 103.88 13.3017 104.386 12.7754C104.891 12.249 105.499 11.8413 106.207 11.5523C106.916 11.2633 107.699 11.1188 108.555 11.1188C109.412 11.1188 110.19 11.2633 110.888 11.5523C111.586 11.8379 112.183 12.2421 112.679 12.765C113.177 13.2845 113.563 13.9124 113.835 14.6487C114.11 15.3849 114.247 16.2037 114.247 17.1051C114.247 17.2427 114.244 17.3838 114.237 17.5283C114.23 17.6727 114.218 17.8155 114.201 17.9566H104.835V15.9956H112.255L110.924 17.9153C110.934 17.7708 110.941 17.6315 110.945 17.4973C110.952 17.3597 110.955 17.2289 110.955 17.1051C110.955 16.5581 110.905 16.0799 110.805 15.6704C110.706 15.261 110.556 14.9187 110.356 14.6435C110.157 14.3683 109.909 14.1636 109.613 14.0294C109.317 13.8918 108.973 13.823 108.581 13.823C108.192 13.823 107.848 13.8883 107.549 14.0191C107.25 14.1498 106.999 14.3425 106.796 14.597C106.593 14.8482 106.438 15.1595 106.331 15.5311C106.224 15.9027 106.171 16.3293 106.171 16.8109V17.3992Z" fill="#02155A"/>
<path d="M121.113 7.73865C122.097 7.73865 122.98 7.85562 123.761 8.08957C124.542 8.32007 125.204 8.65379 125.748 9.09072C126.291 9.52421 126.707 10.054 126.996 10.6802C127.285 11.3063 127.43 12.015 127.43 12.8063H123.797C123.797 12.4864 123.732 12.1991 123.601 11.9445C123.474 11.6899 123.291 11.4732 123.054 11.2943C122.816 11.1154 122.529 10.9795 122.192 10.8866C121.855 10.7903 121.478 10.7421 121.062 10.7421C120.831 10.7421 120.608 10.7576 120.391 10.7885C120.178 10.8161 119.975 10.8608 119.782 10.9227C119.589 10.9812 119.412 11.0552 119.25 11.1446C119.092 11.2306 118.956 11.3321 118.843 11.4491C118.729 11.5626 118.64 11.6899 118.574 11.831C118.513 11.972 118.482 12.1269 118.482 12.2954C118.482 12.4675 118.509 12.6171 118.564 12.7444C118.619 12.8717 118.702 12.9818 118.812 13.0747C118.925 13.1676 119.066 13.2484 119.235 13.3172C119.407 13.3826 119.607 13.4428 119.834 13.4978C120.061 13.5495 120.317 13.5976 120.603 13.6423C120.888 13.6871 121.205 13.7352 121.552 13.7868L122.073 13.8642C122.483 13.9227 122.911 13.9915 123.358 14.0707C123.806 14.1464 124.244 14.2496 124.674 14.3803C125.108 14.5076 125.519 14.6727 125.908 14.8757C126.3 15.0753 126.642 15.3298 126.935 15.6395C127.23 15.9457 127.466 16.3155 127.642 16.749C127.817 17.1825 127.905 17.6985 127.905 18.2972C127.905 19.0747 127.75 19.7645 127.44 20.3666C127.131 20.9652 126.687 21.4692 126.109 21.8786C125.531 22.2846 124.829 22.5925 124.003 22.8024C123.181 23.0122 122.256 23.1171 121.227 23.1171C120.126 23.1171 119.154 23.0002 118.311 22.7662C117.472 22.5288 116.767 22.1865 116.195 21.7393C115.624 21.292 115.193 20.7467 114.9 20.1034C114.608 19.4566 114.461 18.7272 114.461 17.9153H118.094C118.094 18.2628 118.165 18.5724 118.306 18.8442C118.451 19.116 118.657 19.3465 118.925 19.5357C119.194 19.7249 119.521 19.8694 119.906 19.9692C120.291 20.0655 120.726 20.1137 121.211 20.1137C121.624 20.1137 122.008 20.0776 122.362 20.0053C122.717 19.9331 123.023 19.8264 123.281 19.6854C123.542 19.5409 123.747 19.3637 123.895 19.1538C124.046 18.9405 124.122 18.6945 124.122 18.4159C124.122 18.2301 124.093 18.0701 124.034 17.9359C123.979 17.7983 123.893 17.6813 123.776 17.585C123.663 17.4852 123.522 17.401 123.353 17.3321C123.185 17.2633 122.988 17.2031 122.765 17.1515C122.541 17.0999 122.29 17.0535 122.011 17.0122C121.733 16.9709 121.43 16.9279 121.103 16.8832L120.406 16.7851C120.011 16.7335 119.594 16.6733 119.158 16.6045C118.721 16.5323 118.291 16.4359 117.867 16.3155C117.444 16.1951 117.04 16.0403 116.655 15.8511C116.273 15.6584 115.936 15.4159 115.643 15.1234C115.351 14.8276 115.119 14.4715 114.947 14.0552C114.775 13.6355 114.689 13.1366 114.689 12.5586C114.689 12.0357 114.761 11.554 114.905 11.1137C115.053 10.6733 115.261 10.2759 115.53 9.92157C115.801 9.56377 116.128 9.24898 116.51 8.97719C116.896 8.7054 117.326 8.47833 117.8 8.29599C118.279 8.11021 118.796 7.97087 119.354 7.87798C119.911 7.78509 120.498 7.73865 121.113 7.73865Z" fill="#02155A"/>
<path d="M131.95 7.53223V22.8075H128.358V7.53223H131.95Z" fill="#02155A"/>
<path d="M136.294 11.4285V22.8075H132.703V11.4285H136.294ZM136.315 7.53223V10.2983H132.682V7.53223H136.315Z" fill="#02155A"/>
<path d="M140.443 17.1154C140.443 17.5867 140.493 18.003 140.592 18.3643C140.692 18.7255 140.838 19.03 141.031 19.2777C141.224 19.522 141.459 19.7077 141.738 19.835C142.017 19.9623 142.335 20.026 142.693 20.026C142.989 20.026 143.248 19.983 143.472 19.897C143.696 19.8109 143.888 19.6888 144.05 19.5306C144.212 19.3723 144.344 19.1814 144.447 18.9577C144.551 18.7341 144.628 18.4847 144.68 18.2094H148.256C148.166 18.9422 147.969 19.6097 147.662 20.2117C147.356 20.8138 146.961 21.3316 146.476 21.7651C145.994 22.1951 145.433 22.5288 144.793 22.7662C144.153 23.0002 143.453 23.1171 142.693 23.1171C142.122 23.1171 141.58 23.0535 141.067 22.9262C140.555 22.7989 140.08 22.6149 139.643 22.374C139.209 22.1298 138.817 21.8339 138.466 21.4864C138.119 21.1355 137.823 20.7381 137.579 20.2943C137.334 19.8505 137.147 19.362 137.016 18.8287C136.885 18.292 136.82 17.7209 136.82 17.1154C136.82 16.5099 136.885 15.9405 137.016 15.4073C137.147 14.874 137.334 14.3855 137.579 13.9417C137.823 13.4944 138.119 13.097 138.466 12.7496C138.814 12.3986 139.206 12.1028 139.643 11.8619C140.08 11.6211 140.555 11.4371 141.067 11.3098C141.58 11.1825 142.122 11.1188 142.693 11.1188C143.453 11.1188 144.153 11.2375 144.793 11.4749C145.437 11.7088 145.999 12.0408 146.481 12.4709C146.962 12.9009 147.356 13.4187 147.662 14.0242C147.969 14.6263 148.166 15.2937 148.256 16.0265H144.68C144.628 15.7513 144.551 15.5019 144.447 15.2782C144.344 15.0546 144.212 14.8637 144.05 14.7054C143.888 14.5472 143.696 14.425 143.472 14.339C143.248 14.253 142.989 14.21 142.693 14.21C142.335 14.21 142.017 14.2737 141.738 14.4009C141.459 14.5248 141.224 14.7106 141.031 14.9583C140.838 15.2026 140.692 15.5053 140.592 15.8665C140.493 16.2278 140.443 16.6441 140.443 17.1154Z" fill="#02155A"/>
<path d="M151.923 17.3992C151.923 17.8637 151.98 18.2783 152.093 18.6429C152.21 19.0076 152.379 19.3172 152.599 19.5718C152.819 19.8264 153.086 20.0208 153.399 20.155C153.715 20.2857 154.073 20.3511 154.472 20.3511C154.734 20.3511 154.974 20.3218 155.195 20.2634C155.418 20.2014 155.62 20.1103 155.798 19.9898C155.981 19.8694 156.141 19.7198 156.278 19.5409C156.416 19.362 156.536 19.1521 156.64 18.9113H159.953C159.791 19.565 159.542 20.1515 159.204 20.671C158.867 21.1905 158.458 21.6326 157.976 21.9973C157.495 22.3585 156.947 22.6355 156.335 22.8282C155.726 23.0208 155.071 23.1171 154.369 23.1171C153.502 23.1171 152.711 22.9727 151.995 22.6837C151.279 22.3912 150.665 21.9818 150.153 21.4554C149.64 20.9291 149.243 20.2978 148.961 19.5615C148.682 18.8218 148.543 18.0047 148.543 17.1102C148.543 16.2157 148.682 15.4021 148.961 14.6693C149.239 13.9331 149.632 13.3017 150.137 12.7754C150.643 12.249 151.25 11.8413 151.959 11.5523C152.668 11.2633 153.45 11.1188 154.307 11.1188C155.164 11.1188 155.941 11.2633 156.64 11.5523C157.338 11.8379 157.935 12.2421 158.43 12.765C158.929 13.2845 159.314 13.9124 159.586 14.6487C159.861 15.3849 159.999 16.2037 159.999 17.1051C159.999 17.2427 159.996 17.3838 159.989 17.5283C159.982 17.6727 159.97 17.8155 159.953 17.9566H150.586V15.9956H158.007L156.676 17.9153C156.686 17.7708 156.693 17.6315 156.696 17.4973C156.703 17.3597 156.707 17.2289 156.707 17.1051C156.707 16.5581 156.657 16.0799 156.557 15.6704C156.457 15.261 156.308 14.9187 156.108 14.6435C155.908 14.3683 155.661 14.1636 155.365 14.0294C155.069 13.8918 154.725 13.823 154.333 13.823C153.944 13.823 153.6 13.8883 153.301 14.0191C153.001 14.1498 152.75 14.3425 152.547 14.597C152.344 14.8482 152.189 15.1595 152.083 15.5311C151.976 15.9027 151.923 16.3293 151.923 16.8109V17.3992Z" fill="#02155A"/>
<path d="M22.2019 7.69092L26.6427 0L13.3218 7.69093L13.3218 23.0718L8.88184 30.7638L22.2019 23.0718V7.69092Z" fill="white"/>
<path d="M26.6429 -0.000238927L35.5241 15.3823L22.2021 7.69071L26.6429 -0.000238927Z" fill="#151FCD"/>
<path d="M8.88184 -0.000167653H26.6428L17.7616 5.12695L8.88184 -0.000167653Z" fill="#0047D0"/>
<path d="M8.88227 30.7637L0 15.3824L13.3223 23.0717L8.88227 30.7637Z" fill="#151FCD"/>
<path d="M0 15.3823L8.88227 -0.000238927L13.3223 7.69071L0 15.3823Z" fill="#74DBD8"/>
<path d="M17.7616 25.6368L26.6428 30.7637H8.88184L17.7616 25.6368Z" fill="#74DBD8"/>
<path d="M35.5241 15.3824L26.6429 30.7637L22.2021 23.0717L35.5241 15.3824Z" fill="#0047D0"/>
<path d="M22.2021 15.3825V7.69089L35.5241 15.3825L22.2021 23.0718V15.3825Z" fill="#3685FB"/>
<path d="M13.3218 7.69092L8.88184 -3.04261e-05L17.7616 5.12709L13.3218 7.69092Z" fill="#3685FB"/>
<path d="M13.3223 15.3825V23.0718L0 15.3825L13.3223 7.69089V15.3825Z" fill="#3685FB"/>
<path d="M22.2022 23.0717L26.6429 30.7637L17.7617 25.6368L22.2022 23.0717Z" fill="#3685FB"/>
</svg>
