<svg width="1360" height="347" viewBox="0 0 1360 347" fill="none" xmlns="http://www.w3.org/2000/svg">
<path d="M72.1392 128.066L100.832 167.495L130.051 150.819L91.3478 99.5535L90.678 100.043C83.135 108.376 76.8616 117.809 72.1392 128.066Z" fill="#111111"/>
<path d="M261.71 246.866L262.38 246.377C269.922 238.043 276.195 228.61 280.919 218.354L252.225 178.924L223.007 195.602L261.71 246.866Z" fill="#111111"/>
<path d="M301.061 50.4443C294.977 44.5016 288.523 39.0531 281.759 34.1056L273.718 72.1787C301.271 97.4664 318.491 133.37 318.491 173.21C318.491 249.782 254.932 311.857 176.528 311.857C163.531 311.857 150.945 310.14 138.987 306.947L150.066 254.723L149.972 254.713L188.533 73.6L155.377 74.6737L137.017 161.011C127.495 168.169 77.9795 204.676 69.0373 210.971C72.8633 221.206 78.1942 230.743 84.7744 239.33C93.9995 232.73 109.304 221.766 126.73 209.226L114.556 266.402C114.577 266.416 114.601 266.428 114.621 266.442L101.18 329.946C124.444 340.732 150.046 346.421 176.528 346.421C223.526 346.421 267.753 328.505 301.061 295.976C334.591 263.231 353.056 219.631 353.056 173.21C353.056 126.79 334.591 83.1899 301.061 50.4443Z" fill="#111111"/>
<path d="M34.5657 173.21C34.5657 96.6381 98.1242 34.564 176.528 34.564C189.592 34.564 202.24 36.2972 214.254 39.5234L206.758 74.6719L206.711 74.6736L164.524 272.821L197.68 271.747L216.04 185.409C225.562 178.251 275.077 141.745 284.019 135.451C280.193 125.215 274.862 115.678 268.282 107.09C259.057 113.691 243.753 124.654 226.327 137.194L235.468 94.264L235.491 94.2726L251.972 16.5194C228.682 5.70586 203.047 0 176.528 0C129.53 0 85.3031 17.9151 51.9951 50.4442C18.4656 83.1898 0 126.79 0 173.21C0 219.631 18.4656 263.231 51.9951 295.976C58.1066 301.946 64.5895 307.419 71.3878 312.383L79.4251 274.324C51.8213 249.031 34.5657 213.093 34.5657 173.21Z" fill="#111111"/>
<path d="M1351.59 225.764H1346.1C1345.78 223.38 1344.62 221.761 1342.19 221.761C1339.35 221.761 1338.05 224.19 1338.05 228.104C1338.05 232.333 1339.67 234.582 1342.32 234.582C1344.3 234.582 1345.78 233.187 1346.05 230.577H1351.54C1350.69 235.302 1347.63 238.495 1342.01 238.495C1336.25 238.495 1332.29 234.536 1332.29 228.193C1332.29 221.896 1336.29 217.847 1342.37 217.847C1347.76 217.847 1350.96 221.04 1351.59 225.764ZM1327.93 228.149C1327.93 236.38 1333.91 242.41 1342.01 242.41C1350.1 242.41 1356.09 236.38 1356.09 228.149C1356.09 219.915 1350.1 213.843 1342.01 213.843C1333.91 213.843 1327.93 219.915 1327.93 228.149ZM1360 228.149C1360 238.451 1352.35 246.008 1342.01 246.008C1331.66 246.008 1324.01 238.451 1324.01 228.149C1324.01 217.847 1331.66 210.29 1342.01 210.29C1352.35 210.29 1360 217.847 1360 228.149Z" fill="#111111"/>
<path d="M867.83 98.8988H818.574L796.846 202.003C795.384 176.993 791.325 108.49 790.735 98.8306C789.281 98.8306 706.016 98.6415 706.016 98.6415C706.016 98.6415 676.047 240.667 675.234 244.703H723.834L745.911 141.955C747.866 176.263 749.816 210.502 751.764 244.693H836.97C847.253 196.084 867.83 98.8988 867.83 98.8988Z" fill="#111111"/>
<path d="M1188.35 99.0043C1188.35 99.0043 1158.37 241.685 1157.71 245.061C1158.98 245.061 1159.76 245.061 1160.55 245.061C1203.55 245.069 1249.47 244.82 1292.47 244.882C1292.47 244.882 1299.72 208.784 1300.35 205.408H1216.65C1217.69 200.532 1218.6 196.058 1219.57 191.709H1297.71L1306.22 152.109H1227.93C1228.73 148.602 1230.61 138.487 1230.61 138.487C1256.24 138.575 1289.49 138.506 1315.13 138.598C1315.13 138.598 1322.69 102.363 1323.37 99.0776C1322.01 99.0776 1230.81 99.11 1188.35 99.0043Z" fill="#111111"/>
<path d="M686.505 98.8989C685.759 98.8989 651.427 98.9295 635.869 98.8682C635.869 98.8682 635.737 99.7339 635.427 101.208C633.046 112.548 620.984 169.675 617.205 186.871C616.099 191.9 614.225 196.694 610.042 200.147C603.52 205.532 590.283 206.897 582.981 202.584C581.145 201.498 579.011 199.772 578.302 197.88C577.254 195.085 577.881 190.642 578.411 187.362C579.543 180.364 596.054 103.545 597.02 98.9023H584.378C572.687 98.904 558.029 98.9381 546.337 98.8699C546.337 98.8699 546.266 99.2278 545.862 101.488C544.899 106.876 543.558 112.199 542.412 117.557C538.28 136.882 534.126 156.201 530.062 175.539C527.708 186.731 525.726 197.942 527.608 209.485C529.462 220.866 534.636 230.162 544.091 236.86C554.095 243.946 565.616 246.726 577.563 247.542C590.692 248.437 603.786 247.67 616.715 244.88C635.656 240.792 650.029 230.663 658.934 213.219C665.352 200.646 667.835 186.905 670.748 173.295C674.185 157.222 677.597 141.142 681.018 125.066C682.828 116.552 684.633 107.723 686.505 98.8989Z" fill="#111111"/>
<path d="M476.565 98.8988C476.565 98.8988 460.347 175.362 457.542 187.612C456.361 192.769 453.913 197.423 449.496 200.663C443.891 204.774 437.503 205.411 430.957 204.031C423.617 202.483 415.615 197.25 415.615 197.25L381.029 231.836C387.366 238.126 395.688 242.131 404.998 244.926C412.723 247.246 420.727 247.806 428.738 247.89C440.452 248.013 452.069 247.305 463.387 243.786C483.721 237.465 496.798 223.625 503.27 203.862C507.422 191.186 526.118 103.524 527.063 98.8988C525.502 98.8766 476.861 98.8988 476.565 98.8988Z" fill="#111111"/>
<path d="M1111.1 98.8987C1110.02 98.8527 1076.19 98.9413 1060.46 98.8987C1060.46 98.8987 1031.87 234.08 1029.59 244.882C1030.87 244.882 1104.29 244.783 1138.65 244.882C1138.65 244.882 1147.07 204.177 1147.96 199.659H1089.69C1096.89 165.774 1103.98 132.372 1111.1 98.8987Z" fill="#111111"/>
<path d="M964.69 142.757C965.32 142.907 966.027 143.101 966.803 143.343C966.131 143.103 965.426 142.907 964.69 142.757Z" fill="#111111"/>
<path d="M947.985 164.776C947.985 164.776 942.927 189.703 941.938 193.585H970.07C968.911 199.77 965.654 204.051 960.238 206.527C952.833 209.912 944.958 210.595 937.014 209.491C925.95 207.954 920.493 201.742 919.841 190.519C919.2 179.482 921.988 169.109 926.436 159.183C929.558 152.218 934.727 147.064 941.981 144.245C948.085 141.873 954.394 141.522 960.709 142.19L960.712 142.186C960.712 142.186 962.089 142.135 964.69 142.757C965.426 142.907 966.131 143.101 966.803 143.343C968.57 143.894 970.706 144.709 973.198 145.91L1012.33 106.781C1009.04 104.816 1005.49 103.227 1001.78 101.906C987.629 96.8618 972.928 95.299 957.987 95.8921C939.061 96.6436 921.184 101.066 905.31 111.858C895.139 118.772 886.807 127.458 880.706 138.239C875.068 148.202 871.557 158.892 869.332 170.06C866.348 185.033 865.161 199.998 869.737 214.888C873.638 227.583 881.488 236.994 893.541 242.693C901.995 246.69 911.042 248.089 920.301 247.898C929.436 247.71 938.439 246.412 946.73 242.301C956.958 237.231 969.44 227.023 974.573 217.235C970.852 226.278 966.991 235.719 963.221 244.881H1009.95C1009.95 244.881 1012.64 232.969 1013.68 228.047C1017.26 211.081 1020.85 194.115 1024.42 177.146C1025.25 173.218 1026.1 169.049 1026.97 164.785C1025.51 164.775 954.282 164.788 947.985 164.776Z" fill="#111111"/>
</svg>
