<svg width="100" height="61" viewBox="0 0 100 61" fill="none" xmlns="http://www.w3.org/2000/svg">
<path d="M7.92185 31.9527C5.87066 31.9527 4.40065 31.8843 3.5118 31.7476L3.10156 9.86824C3.48901 9.82266 4.70833 9.79987 6.75951 9.79987C8.8107 9.79987 10.4858 9.9822 11.7849 10.3469C13.084 10.7115 14.2691 11.2927 15.3403 12.0904C17.5738 13.7541 18.6906 16.5802 18.6906 20.5686C18.6906 24.124 17.7106 26.9159 15.7505 28.9443C13.8133 30.9499 11.2038 31.9527 7.92185 31.9527ZM15.5112 20.9447C15.5112 17.64 14.7364 15.3267 13.1866 14.0048C11.6368 12.6601 9.3121 11.9878 6.21253 11.9878L6.38346 29.628C8.91326 29.628 11.0214 29.0241 12.708 27.8161C14.5768 26.517 15.5112 24.2266 15.5112 20.9447Z" fill="#31041E"/>
<path d="M35.9585 9.45801L36.2662 18.7225C36.2662 23.7593 35.4913 27.3147 33.9415 29.3887C33.3261 30.2092 32.4943 30.8701 31.4459 31.3715C30.4203 31.8729 29.3035 32.1236 28.0956 32.1236C26.9105 32.1236 25.9418 31.9413 25.1897 31.5766C24.4376 31.212 23.8223 30.6536 23.3437 29.9015C22.8651 29.1494 22.4662 28.3517 22.1472 27.5085C21.8281 26.6424 21.5888 25.5826 21.4292 24.3291C21.2013 22.3007 21.0874 19.8393 21.0874 16.9448V10.005L24.2325 9.62894C24.1869 12.3183 24.1642 14.529 24.1642 16.2611C24.1642 17.9932 24.2097 19.6 24.3009 21.0814C24.4149 22.5628 24.62 23.9645 24.9163 25.2863C25.5088 27.8845 26.6826 29.1836 28.4375 29.1836C30.0328 29.1836 31.218 28.2833 31.9928 26.4829C32.7677 24.6596 33.1552 21.8221 33.1552 17.9704C33.1552 15.6913 33.0298 12.945 32.7791 9.7315L35.9585 9.45801Z" fill="#31041E"/>
<path d="M38.7075 10.6545L41.716 9.49219L47.3225 18.7909H47.6644L53.1 9.25289L55.9033 10.6545L49.2712 20.9447L56.5871 31.4057L53.6812 32.4997L47.3567 23.4745L47.1174 23.4403L41.8185 32.5339L39.0152 31.4057L45.4081 20.7395L38.7075 10.6545Z" fill="#31041E"/>
<path d="M7.92185 57.5894C5.87066 57.5894 4.40065 57.521 3.5118 57.3842L3.10156 35.5049C3.48901 35.4593 4.70833 35.4365 6.75951 35.4365C8.8107 35.4365 10.4858 35.6189 11.7849 35.9835C13.084 36.3482 14.2691 36.9294 15.3403 37.727C17.5738 39.3908 18.6906 42.2169 18.6906 46.2053C18.6906 49.7607 17.7106 52.5526 15.7505 54.581C13.8133 56.5866 11.2038 57.5894 7.92185 57.5894ZM15.5112 46.5813C15.5112 43.2766 14.7364 40.9634 13.1866 39.6415C11.6368 38.2968 9.3121 37.6245 6.21253 37.6245L6.38346 55.2647C8.91326 55.2647 11.0214 54.6607 12.708 53.4528C14.5768 52.1537 15.5112 49.8632 15.5112 46.5813Z" fill="#31041E"/>
<path d="M21.1557 35.6758L31.5142 35.1289L31.651 38.1715L24.1983 38.1373L24.3351 44.7011L30.3177 44.5985L30.2835 47.6069L24.4376 47.4702V54.7519L31.8219 54.5468V57.6577L21.566 57.521L21.1557 35.6758Z" fill="#31041E"/>
<path d="M40.1562 54.7519C40.7943 54.524 41.2844 54.1479 41.6262 53.6237C41.9681 53.0995 42.139 52.45 42.139 51.6751C42.139 50.9002 41.8427 50.2507 41.2502 49.7265C40.6804 49.2023 39.9853 48.7579 39.1648 48.3932C38.3443 48.0058 37.5238 47.5841 36.7034 47.1283C35.8829 46.6497 35.1764 45.9546 34.5838 45.0429C34.014 44.1313 33.7291 43.0145 33.7291 41.6927C33.7291 39.6415 34.4015 38.0233 35.7461 36.8382C37.0908 35.6303 39.0053 35.0263 41.4895 35.0263C42.082 35.0263 42.8113 35.0833 43.6774 35.1972L44.2586 37.9663C43.3241 37.7612 42.4353 37.6587 41.592 37.6587C38.1962 37.6587 36.4982 38.9691 36.4982 41.5901C36.4982 43.2083 37.4783 44.4048 39.4383 45.1797C40.2588 45.5215 41.0792 45.8862 41.8997 46.2736C42.743 46.6383 43.4495 47.2195 44.0193 48.0172C44.589 48.8148 44.8739 49.8062 44.8739 50.9914C44.8739 52.1765 44.6574 53.1907 44.2244 54.034C43.8141 54.8772 43.29 55.5496 42.6518 56.051C42.0137 56.5296 41.2046 56.917 40.2246 57.2133C38.6064 57.7147 36.6464 57.9654 34.3445 57.9654L33.7291 55.0938C34.5496 55.2305 35.3929 55.2989 36.2589 55.2989C37.125 55.2989 37.8315 55.2647 38.3785 55.1963C38.9255 55.1279 39.5181 54.9798 40.1562 54.7519Z" fill="#31041E"/>
<path d="M47.6422 35.4365L50.9925 35.2656L50.6165 57.4526L47.8473 57.5552L47.6422 35.4365Z" fill="#31041E"/>
<path d="M62.2401 46.4104L68.4279 46.5813C68.4962 47.4018 68.5304 48.2451 68.5304 49.1111C68.5304 49.9544 68.4165 50.866 68.1886 51.846C67.9834 52.826 67.653 53.7833 67.1971 54.7177C66.7413 55.6293 66.0918 56.37 65.2485 56.9398C64.428 57.5096 63.3455 57.7945 62.0008 57.7945C60.6561 57.7945 59.4026 57.5096 58.2403 56.9398C57.078 56.3473 56.1777 55.5154 55.5396 54.4442C54.2861 52.393 53.6593 49.7607 53.6593 46.5471C53.6593 43.5159 54.4 40.9178 55.8814 38.7526C56.6107 37.7042 57.568 36.8724 58.7531 36.257C59.9382 35.6189 61.1917 35.2998 62.5136 35.2998C63.8583 35.2998 64.9294 35.5277 65.7271 35.9835C66.5476 36.4166 67.3339 37.1459 68.086 38.1715L65.6588 39.8466C64.6787 38.6387 63.5848 38.0347 62.3769 38.0347C60.5536 38.0347 59.1291 38.9008 58.1035 40.6329C57.1007 42.3422 56.5993 44.382 56.5993 46.7523C56.5993 48.4616 56.9868 50.2279 57.7617 52.0512C58.1491 52.9628 58.7075 53.7149 59.4368 54.3075C60.1661 54.9 61.0322 55.1963 62.035 55.1963C63.0606 55.1963 63.938 54.6493 64.6673 53.5554C65.3967 52.4386 65.7613 51.037 65.7613 49.3504C65.7613 49.1909 65.7613 49.0314 65.7613 48.8718L62.2401 48.8376V46.4104Z" fill="#31041E"/>
<path d="M74.7945 57.897L71.7861 57.7603L71.3075 35.6417L74.5552 35.4707L82.76 50.9914L82.5207 35.0947L85.871 35.334L85.2898 57.9654L83.2044 57.897L74.0766 41.2824L74.7945 57.897Z" fill="#31041E"/>
<path d="M89.296 12.8514C89.2304 11.6611 88.6137 11.1248 87.8264 11.1248C87.5377 11.1248 87.0523 11.1902 86.8423 11.2425C86.6324 11.2948 86.4356 11.3471 86.1994 11.3471C86.0944 11.3471 85.9894 11.3341 85.8714 11.321C85.504 9.60738 84.6117 8.05075 83.2996 6.86039C81.7513 5.43457 79.7438 4.41426 77.6313 4.41426C77.4869 4.41426 77.3426 4.41426 77.2114 4.42734C72.5927 4.6628 69.1681 8.7702 69.4043 13.4793C69.4961 15.2453 69.8635 16.5141 70.9526 17.9007C71.1756 18.1885 71.6218 19.0387 70.9919 19.6666C70.3752 20.2814 69.6929 20.7916 68.4333 20.7916C66.452 20.7916 64.9956 19.3788 63.2767 17.5344L61.794 15.9255L60.8099 17.9922C59.3666 21.6418 59.0517 25.1475 59.8521 28.1954L59.8914 28.3L61.4004 28.1954C60.5869 25.4745 60.5606 21.7595 61.9908 18.1231C63.7884 20.0721 65.8222 22.2697 68.4333 22.2697C71.3331 22.2697 73.6031 19.4835 72.1204 17.2466C71.3856 16.1348 70.9526 14.9051 70.8739 13.4008C70.677 9.58122 73.4456 5.87932 77.277 5.69619C77.3951 5.69619 77.5132 5.68311 77.6313 5.68311C81.2133 5.68311 84.1656 8.63939 84.5068 12.1974C85.1628 12.5113 85.9632 12.6029 86.4093 12.6029C87.1047 12.6029 87.459 12.4459 87.7083 12.4459C87.8527 12.4459 87.9314 12.5244 87.9445 12.773C88.0495 14.8528 85.8976 15.2322 85.8976 15.2322C85.8976 15.2322 86.5405 15.6377 86.5537 15.9516C86.5799 16.501 85.832 16.6449 85.0972 16.6449C84.4674 16.6449 83.5883 16.5403 83.4833 16.5141C83.2865 16.8542 82.3942 17.8484 82.7879 20.1637C83.1159 22.0473 85.6614 24.3888 84.1787 27.4497C84.0606 27.6983 83.9425 27.9468 83.8113 28.2084L85.294 28.8625L85.5696 28.2608C85.5827 28.2215 85.6089 28.1823 85.6221 28.143C86.9473 25.383 85.3334 22.9499 84.4936 21.3802C84.1918 20.8177 83.8769 20.2291 83.8113 19.8628C83.6539 18.9864 83.8507 18.4632 84.1 18.0969C84.3362 18.1231 84.8348 18.1361 85.0841 18.1361C86.1863 18.1361 86.9735 17.8745 87.4853 17.3513C87.8658 16.9589 88.0495 16.4487 88.0232 15.8993C88.0232 15.8993 88.0232 15.8993 88.0232 15.8862C88.7843 15.2453 89.3747 14.2642 89.296 12.8514Z" fill="#31041E"/>
</svg>
