<svg width="192" height="46" viewBox="0 0 192 46" fill="none" xmlns="http://www.w3.org/2000/svg">
<path d="M39.057 34.1915L32.8538 30.5458L31.5083 31.9045L28.0976 28.8195L25.3338 31.7555L19.3171 21.3315L12.8954 32.4531L11.3379 31.1242L8.94938 33.5238L4.61487 30.8891L0 33.4575L19.3171 0L39.057 34.1915Z" fill="#012B35"/>
<path d="M19.3173 45.3135L12.8955 34.1919H25.7379L19.3173 45.3135Z" fill="#F36F35"/>
<path d="M56.001 23.1285C55.9385 23.0165 55.8668 22.8456 55.7897 22.6177L55.5637 21.6899L55.2201 19.9425C55.1172 19.3968 54.9132 19.0275 54.6064 18.8346C54.2995 18.6417 53.695 18.5461 52.7929 18.5461H50.9574V23.1285H48.5596V12.3468H53.7061C54.7093 12.3468 55.4497 12.3927 55.9238 12.4828C56.3978 12.5728 56.8021 12.7235 57.1328 12.9329C57.4984 13.1663 57.7795 13.4841 57.9761 13.8829C58.1727 14.2816 58.272 14.7299 58.272 15.2278C58.272 15.9536 58.0662 16.5305 57.6546 16.9568C57.243 17.3831 56.5999 17.6844 55.729 17.8589C56.0304 17.8589 56.2968 17.8994 56.5264 17.9802C56.7561 18.0611 56.9435 18.1713 57.0887 18.3128C57.3661 18.5663 57.5958 19.1543 57.7759 20.0748L58.0607 21.508L58.0974 21.677C58.2389 22.4083 58.4024 22.8934 58.588 23.1322H56.001V23.1285ZM50.9574 16.887H52.7782C54.0644 16.887 54.9059 16.7841 55.3009 16.5801C55.6959 16.3762 55.8925 16.0032 55.8925 15.4612C55.8925 14.9155 55.7033 14.5406 55.3266 14.3348C54.9481 14.1309 54.0901 14.028 52.7506 14.028H50.9592V16.887H50.9574Z" fill="#012B35"/>
<path d="M66.088 23.2974C65.1564 23.2974 64.3351 23.1762 63.6204 22.9355C62.9056 22.6948 62.2662 22.32 61.7022 21.8128C61.1124 21.2763 60.6604 20.659 60.3462 19.9608C60.032 19.2626 59.874 18.5221 59.874 17.7431C59.874 16.9438 60.0301 16.196 60.3425 15.4996C60.6548 14.8032 61.1068 14.1896 61.7022 13.6567C62.257 13.1588 62.8965 12.7876 63.6167 12.5414C64.337 12.2952 65.1619 12.1721 66.088 12.1721C66.5602 12.1721 66.9993 12.2015 67.4035 12.2603C67.8078 12.3191 68.1955 12.411 68.5666 12.5378C69.274 12.7766 69.9189 13.1533 70.5032 13.6677C71.0875 14.1822 71.5358 14.7904 71.8482 15.4959C72.1605 16.1996 72.3167 16.9493 72.3167 17.7431C72.3167 18.5368 72.1624 19.2809 71.8555 19.9718C71.5487 20.6645 71.093 21.2782 70.4885 21.8147C69.9281 22.3126 69.2869 22.6838 68.5629 22.93C67.839 23.1762 67.014 23.2974 66.088 23.2974ZM69.7719 17.7412C69.7719 16.6406 69.4265 15.7366 68.7338 15.0292C68.0411 14.3218 67.1592 13.9691 66.088 13.9691C64.9911 13.9691 64.0981 14.3182 63.4091 15.0145C62.7201 15.7109 62.3746 16.6149 62.3746 17.7265C62.3746 18.8326 62.7182 19.7384 63.4054 20.4422C64.0926 21.1459 64.9874 21.4987 66.088 21.4987C67.1794 21.4987 68.0668 21.1477 68.7485 20.4458C69.432 19.744 69.7719 18.8436 69.7719 17.7412Z" fill="#012B35"/>
<path d="M82.3229 15.5566C82.3229 15.2975 82.2641 15.0715 82.1447 14.8768C82.0253 14.682 81.8507 14.5093 81.6229 14.3586C81.1893 14.0812 80.5848 13.9416 79.8094 13.9416C78.7382 13.9416 77.8893 14.2815 77.2665 14.9613C76.6418 15.6411 76.3312 16.5635 76.3312 17.7284C76.3312 18.9668 76.6436 19.9204 77.2701 20.5929C77.8967 21.2653 78.786 21.6016 79.9417 21.6016C80.7115 21.6016 81.316 21.4399 81.7552 21.1184C82.1943 20.7968 82.413 20.343 82.413 19.7587V19.6705H84.8548V19.8175C84.8548 20.9089 84.4083 21.7651 83.5172 22.3825C82.6261 23.0017 81.373 23.3103 79.7598 23.3103C77.9169 23.3103 76.4745 22.8198 75.4328 21.8404C74.3891 20.8611 73.8691 19.4941 73.8691 17.7394C73.8691 15.97 74.4112 14.603 75.4952 13.6347C76.5793 12.6682 78.1061 12.1832 80.074 12.1832C81.5402 12.1832 82.6684 12.4735 83.4584 13.0523C83.8571 13.3389 84.1677 13.6953 84.3863 14.1198C84.605 14.5442 84.7152 15.0219 84.7152 15.5529H82.3229V15.5566Z" fill="#012B35"/>
<path d="M86.8851 23.1285V12.3468H89.2829V16.9292L94.0123 12.3468H97.0679L91.87 17.2581L97.5713 23.1285H94.2971L89.2829 17.8295V23.1285H86.8851Z" fill="#012B35"/>
<path d="M98.624 23.1285V12.3468H107.212V13.9839H100.983V16.6444H106.707V18.2889H100.983V21.4547H107.423V23.1285H98.624Z" fill="#012B35"/>
<path d="M114.879 14.1456V23.1285H112.452V14.1456H108.235V12.3468H119.12V14.1456H114.879Z" fill="#012B35"/>
<path d="M131.789 15.5564C131.789 15.2974 131.73 15.0714 131.611 14.8766C131.492 14.6818 131.317 14.5091 131.089 14.3585C130.656 14.081 130.051 13.9414 129.276 13.9414C128.205 13.9414 127.356 14.2813 126.733 14.9611C126.108 15.641 125.798 16.5633 125.798 17.7282C125.798 18.9666 126.11 19.9202 126.736 20.5927C127.363 21.2652 128.252 21.6014 129.408 21.6014C130.178 21.6014 130.782 21.4397 131.221 21.1182C131.661 20.7966 131.879 20.3428 131.879 19.7585V19.6703H134.321V19.8173C134.321 20.9087 133.875 21.7649 132.984 22.3823C132.092 22.9997 130.839 23.3102 129.226 23.3102C127.383 23.3102 125.941 22.8196 124.899 21.8403C123.855 20.861 123.335 19.4939 123.335 17.7392C123.335 15.9699 123.877 14.6028 124.962 13.6345C126.046 12.6681 127.572 12.183 129.54 12.183C131.007 12.183 132.135 12.4733 132.925 13.0521C133.323 13.3387 133.634 13.6952 133.853 14.1196C134.071 14.544 134.182 15.0218 134.182 15.5528H131.789V15.5564Z" fill="#F36F35"/>
<path d="M136.35 12.3466H138.777V21.4692H144.523V23.1284H136.35V12.3466Z" fill="#F36F35"/>
<path d="M151.35 23.2973C150.418 23.2973 149.597 23.176 148.882 22.9353C148.167 22.6946 147.528 22.3198 146.964 21.8127C146.374 21.2762 145.922 20.6588 145.608 19.9606C145.294 19.2606 145.136 18.5219 145.136 17.7429C145.136 16.9436 145.292 16.1958 145.604 15.4994C145.917 14.8031 146.369 14.1894 146.964 13.6566C147.519 13.1586 148.158 12.7875 148.879 12.5413C149.601 12.2951 150.424 12.172 151.35 12.172C151.822 12.172 152.261 12.2013 152.665 12.2601C153.07 12.3189 153.457 12.4108 153.828 12.5376C154.536 12.7764 155.181 13.1531 155.765 13.6676C156.349 14.182 156.798 14.7902 157.11 15.4958C157.422 16.1995 157.579 16.9491 157.579 17.7429C157.579 18.5366 157.424 19.2808 157.117 19.9716C156.811 20.6643 156.355 21.278 155.75 21.8145C155.19 22.3124 154.549 22.6836 153.825 22.9298C153.101 23.1742 152.276 23.2973 151.35 23.2973ZM155.034 17.741C155.034 16.6405 154.688 15.7365 153.996 15.0291C153.303 14.3217 152.421 13.9689 151.35 13.9689C150.253 13.9689 149.36 14.318 148.671 15.0144C147.982 15.7107 147.636 16.6147 147.636 17.7263C147.636 18.8324 147.98 19.7383 148.667 20.442C149.354 21.1457 150.249 21.4985 151.35 21.4985C152.441 21.4985 153.329 21.1475 154.01 20.4457C154.692 19.7438 155.034 18.8435 155.034 17.741Z" fill="#F36F35"/>
<path d="M159.17 19.7735L161.398 19.7808C161.398 20.3504 161.65 20.7951 162.155 21.1111C162.661 21.4271 163.364 21.587 164.272 21.587C165.13 21.587 165.799 21.4547 166.278 21.1883C166.758 20.9218 166.999 20.5507 166.999 20.073C166.999 19.4538 166.227 19.0183 164.682 18.7648L163.943 18.6398C162.174 18.3183 160.979 17.9159 160.358 17.4345C159.737 16.9531 159.427 16.2512 159.427 15.3289C159.427 14.3293 159.849 13.554 160.695 13.0009C161.54 12.4479 162.729 12.1704 164.257 12.1704C165.72 12.1704 166.85 12.4387 167.649 12.9752C168.053 13.249 168.36 13.5742 168.566 13.9545C168.774 14.3348 168.876 14.7777 168.876 15.2848H166.677C166.677 15.0698 166.618 14.8787 166.503 14.7078C166.385 14.537 166.21 14.3808 165.977 14.2393C165.543 13.9766 164.979 13.8443 164.283 13.8443C163.427 13.8443 162.776 13.9692 162.334 14.2173C161.891 14.4653 161.67 14.8309 161.67 15.3142C161.67 15.8984 162.596 16.3468 164.448 16.6591C164.628 16.6885 164.805 16.7179 164.978 16.7473C165.15 16.7767 165.295 16.8024 165.413 16.8282C166.855 17.0762 167.866 17.4308 168.447 17.8883C169.027 18.3458 169.316 18.9889 169.316 19.8176C169.316 20.9292 168.869 21.7891 167.978 22.3973C167.087 23.0054 165.821 23.3104 164.184 23.3104C162.576 23.3104 161.338 23.0128 160.47 22.4193C159.603 21.824 159.17 20.9788 159.17 19.8837V19.7735Z" fill="#F36F35"/>
<path d="M171.502 23.1284V12.3466H180.09V13.9837H173.863V16.6443H179.587V18.2887H173.863V21.4545H180.303V23.1284H171.502Z" fill="#F36F35"/>
<path d="M187.76 14.1454V23.1284H185.332V14.1454H181.116V12.3466H192V14.1454H187.76Z" fill="#F36F35"/>
<path d="M50.0079 30.5016H48.5601V29.6546H52.5012V30.5016H51.0534V34.1451H50.0079V30.5016Z" fill="#F36F35"/>
<path d="M56.9125 34.1454L56.0398 32.8941H55.077V34.1454H54.0297V29.6548H55.9865C57.1937 29.6548 57.9507 30.2777 57.9507 31.2846C57.9507 31.9589 57.6089 32.4513 57.0209 32.703L58.0352 34.1454H56.9125ZM55.9314 30.5019H55.0788V32.0673H55.9314C56.5708 32.0673 56.8942 31.7715 56.8942 31.2846C56.8942 30.7903 56.5708 30.5019 55.9314 30.5019Z" fill="#F36F35"/>
<path d="M62.7257 33.1826H60.6256L60.225 34.1454H59.152L61.1676 29.6548H62.2021L64.2232 34.1454H63.1244L62.7257 33.1826ZM62.3968 32.3944L61.6802 30.6746L60.9637 32.3944H62.3968Z" fill="#F36F35"/>
<path d="M69.7687 29.6548L67.8119 34.1454H66.7793L64.828 29.6548H65.958L67.3342 32.8629L68.7287 29.6548H69.7687Z" fill="#F36F35"/>
<path d="M74.6142 33.3112V34.1454H71.1122V29.6548H74.5297V30.489H72.1521V31.4647H74.2522V32.2731H72.1521V33.3112H74.6142Z" fill="#F36F35"/>
<path d="M76.4161 29.6548H77.4634V33.2984H79.7307V34.1454H76.418V29.6548H76.4161Z" fill="#F36F35"/>
<path d="M84.0839 29.6548H85.1312V33.2984H87.3985V34.1454H84.0839V29.6548Z" fill="#F36F35"/>
<path d="M88.9546 29.6548H90.0019V34.1454H88.9546V29.6548Z" fill="#F36F35"/>
<path d="M96.0521 31.8282V33.6509C95.5542 34.0238 94.8707 34.2223 94.2239 34.2223C92.8036 34.2223 91.7563 33.254 91.7563 31.8998C91.7563 30.5457 92.8018 29.5774 94.2423 29.5774C95.0361 29.5774 95.6957 29.8475 96.1348 30.3528L95.4623 30.9683C95.1334 30.621 94.7513 30.4612 94.2938 30.4612C93.4155 30.4612 92.8147 31.0455 92.8147 31.898C92.8147 32.7377 93.4155 33.3348 94.2809 33.3348C94.5657 33.3348 94.8303 33.2834 95.0949 33.1419V31.8282H96.0521Z" fill="#F36F35"/>
<path d="M102.14 29.6548V34.1454H101.094V32.3043H99.04V34.1454H97.9927V29.6548H99.04V31.4261H101.094V29.6548H102.14Z" fill="#F36F35"/>
<path d="M105.118 30.5019H103.67V29.6548H107.611V30.5019H106.163V34.1454H105.118V30.5019Z" fill="#F36F35"/>
<path d="M112.644 33.3112V34.1454H109.144V29.6548H112.561V30.489H110.184V31.4647H112.284V32.2731H110.184V33.3112H112.644Z" fill="#F36F35"/>
<path d="M117.328 34.1454L116.455 32.8941H115.492V34.1454H114.445V29.6548H116.402C117.609 29.6548 118.366 30.2777 118.366 31.2846C118.366 31.9589 118.024 32.4513 117.436 32.703L118.45 34.1454H117.328ZM116.345 30.5019H115.492V32.0673H116.345C116.984 32.0673 117.307 31.7715 117.307 31.2846C117.307 30.7903 116.984 30.5019 116.345 30.5019Z" fill="#F36F35"/>
<path d="M119.847 33.5684C119.847 33.1954 120.124 32.9528 120.473 32.9528C120.822 32.9528 121.1 33.1972 121.1 33.5684C121.1 33.934 120.822 34.1967 120.473 34.1967C120.124 34.1967 119.847 33.934 119.847 33.5684Z" fill="#F36F35"/>
<path d="M129.039 33.4453V34.1454H125.647V29.6548H128.947V30.3549H126.487V31.5216H128.67V32.207H126.487V33.4453H129.039Z" fill="#F36F35"/>
<path d="M133.741 34.1454L132.513 32.4385L131.299 34.1454H130.343L132.023 31.856L130.433 29.6548H131.383L132.539 31.2515L133.682 29.6548H134.593L133.011 31.8229L134.711 34.1454H133.741Z" fill="#F36F35"/>
<path d="M139.975 31.2515C139.975 32.24 139.238 32.8482 138.049 32.8482H137.029V34.1436H136.19V29.6548H138.049C139.24 29.6548 139.975 30.2575 139.975 31.2515ZM139.129 31.2515C139.129 30.6874 138.749 30.3604 138.012 30.3604H137.031V32.1445H138.012C138.747 32.1445 139.129 31.8156 139.129 31.2515Z" fill="#F36F35"/>
<path d="M141.785 29.6548H142.624V33.4398H144.989V34.1454H141.785V29.6548Z" fill="#F36F35"/>
<path d="M146.217 31.9001C146.217 30.5717 147.249 29.5905 148.651 29.5905C150.053 29.5905 151.086 30.5662 151.086 31.9001C151.086 33.234 150.051 34.2097 148.651 34.2097C147.249 34.2097 146.217 33.2267 146.217 31.9001ZM150.24 31.9001C150.24 30.9832 149.562 30.3218 148.651 30.3218C147.74 30.3218 147.062 30.9832 147.062 31.9001C147.062 32.817 147.74 33.4784 148.651 33.4784C149.562 33.4784 150.24 32.817 150.24 31.9001Z" fill="#F36F35"/>
<path d="M155.907 34.1454L154.982 32.8298C154.924 32.8372 154.867 32.8372 154.808 32.8372H153.788V34.1454H152.948V29.6548H154.808C155.997 29.6548 156.733 30.2575 156.733 31.2515C156.733 31.9313 156.384 32.4311 155.771 32.67L156.811 34.1454H155.907ZM154.769 30.3604H153.788V32.15H154.769C155.506 32.15 155.886 31.8156 155.886 31.2515C155.886 30.6874 155.506 30.3604 154.769 30.3604Z" fill="#F36F35"/>
<path d="M162.031 33.4453V34.1454H158.639V29.6548H161.939V30.3549H159.478V31.5216H161.661V32.207H159.478V33.4453H162.031Z" fill="#F36F35"/>
<path d="M170.841 34.1454L170.836 31.1688L169.349 33.6328H168.974L167.488 31.2074V34.1454H166.687V29.6548H167.378L169.173 32.6314L170.937 29.6548H171.628L171.635 34.1454H170.841Z" fill="#F36F35"/>
<path d="M173.503 31.9001C173.503 30.5717 174.536 29.5905 175.938 29.5905C177.339 29.5905 178.372 30.5662 178.372 31.9001C178.372 33.234 177.338 34.2097 175.938 34.2097C174.536 34.2097 173.503 33.2267 173.503 31.9001ZM177.527 31.9001C177.527 30.9832 176.849 30.3218 175.938 30.3218C175.026 30.3218 174.348 30.9832 174.348 31.9001C174.348 32.817 175.026 33.4784 175.938 33.4784C176.849 33.4784 177.527 32.817 177.527 31.9001Z" fill="#F36F35"/>
<path d="M183.194 34.1454L182.269 32.8298C182.211 32.8372 182.154 32.8372 182.095 32.8372H181.075V34.1454H180.235V29.6548H182.095C183.284 29.6548 184.02 30.2575 184.02 31.2515C184.02 31.9313 183.671 32.4311 183.058 32.67L184.098 34.1454H183.194ZM182.056 30.3604H181.075V32.15H182.056C182.793 32.15 183.173 31.8156 183.173 31.2515C183.173 30.6874 182.793 30.3604 182.056 30.3604Z" fill="#F36F35"/>
<path d="M189.318 33.4453V34.1454H185.926V29.6548H189.226V30.3549H186.765V31.5216H188.948V32.207H186.765V33.4453H189.318Z" fill="#F36F35"/>
<path d="M190.938 33.6565C190.938 33.335 191.177 33.1237 191.467 33.1237C191.757 33.1237 191.996 33.335 191.996 33.6565C191.996 33.9652 191.757 34.1893 191.467 34.1893C191.179 34.1893 190.938 33.9652 190.938 33.6565Z" fill="#F36F35"/>
</svg>
