<svg width="100" height="31" viewBox="0 0 100 31" fill="none" xmlns="http://www.w3.org/2000/svg">
<g clip-path="url(#clip0_1276_2589)">
<path d="M30.2584 0.000488281C27.7659 0.940152 24.1888 2.59066 20.5576 5.29585C14.7696 9.60816 7.83507 17.4843 6.9802 30.737H0C0 12.37 12.6829 0.453939 30.2584 0.000488281Z" fill="black"/>
<path d="M95.3065 30.737H99.9387L85.1795 16.1342L100.004 1.46645H95.3719L82.8636 13.8426L70.3551 1.46645H65.7229L95.3065 30.737Z" fill="black"/>
<path d="M70.4206 30.737L81.2909 19.9819L78.9747 17.6903L65.7885 30.737H70.4206Z" fill="black"/>
<path d="M14.2968 15.0503C15.2939 13.3539 16.9404 11.5759 16.9404 11.5759C21.0979 6.83867 26.6093 3.49966 32.5806 1.48179L32.5778 30.8055H29.3027V21.1197H11.1425C11.5528 20.0048 12.0234 18.9243 12.5548 17.8794H29.3027V6.61875C21.386 8.71068 14.3014 15.0424 14.2968 15.0503Z" fill="black"/>
<path d="M63.5368 30.737L50.0761 17.4186C60.1619 12.2914 62.7402 3.98971 62.8717 3.54306L63.4842 1.46872H34.9274V30.8055H38.2024V4.70927H58.836C57.0399 8.17044 52.123 14.9316 40.4319 17.3078V20.6123C42.8134 20.1686 44.9506 19.5572 46.8712 18.8307L58.9047 30.737H63.5368Z" fill="black"/>
</g>
<defs>
<clipPath id="clip0_1276_2589">
<rect width="100" height="30.8458" fill="white"/>
</clipPath>
</defs>
</svg>
