<svg width="200" height="42" viewBox="0 0 200 42" fill="none" xmlns="http://www.w3.org/2000/svg">
<path d="M12.6639 29.0718C12.1287 29.0718 11.5934 28.8659 11.1817 28.4953L4.22353 22.2371C0.229767 18.6551 -1.04659 13.3437 0.888529 8.32067C2.82365 3.33877 7.31148 0.209656 12.6639 0.209656C18.0164 0.209656 22.5454 3.29759 24.4393 8.32067C26.3333 13.3437 25.0569 18.6551 21.1044 22.2371C20.1986 23.0605 18.7575 22.9782 17.934 22.0724C17.1106 21.1666 17.1929 19.7256 18.0987 18.9021C21.1867 16.1435 21.2279 12.438 20.2397 9.92642C19.2516 7.41488 16.7812 4.6975 12.6228 4.6975C8.46432 4.6975 5.99395 7.41488 5.00581 9.92642C4.01766 12.438 4.1 16.1435 7.14679 18.9021L14.105 25.1603C15.0108 25.9838 15.0931 27.4249 14.2697 28.3307C13.8991 28.8247 13.2815 29.0718 12.6639 29.0718Z" fill="#444444"/>
<path d="M17.9756 24.0487C17.1933 24.0487 16.4522 23.6781 16.0405 22.937C15.4229 21.8665 15.7523 20.5078 16.8227 19.849C19.3343 18.3668 20.8165 15.7318 20.8165 12.8497C20.8165 8.36184 17.1521 4.6975 12.6643 4.6975C8.17647 4.6975 4.51209 8.36184 4.51209 12.8497C4.51209 14.0849 3.52394 15.073 2.28876 15.073C1.05358 15.073 0.0654297 14.0849 0.0654297 12.8497C0.0654297 5.89148 5.74727 0.209656 12.7055 0.209656C19.6637 0.209656 25.3455 5.89148 25.3455 12.8497C25.3455 17.2963 22.9987 21.4548 19.1696 23.7193C18.799 23.9663 18.3873 24.0487 17.9756 24.0487Z" fill="#444444"/>
<path d="M26.9922 42C26.4569 42 25.9217 41.7941 25.51 41.4236L9.78197 27.2601C8.87617 26.4367 8.79382 24.9956 9.61728 24.0898C10.4407 23.184 11.8818 23.1017 12.7876 23.9251L28.5156 38.0886C29.4214 38.912 29.5037 40.3531 28.6803 41.2589C28.2274 41.7118 27.6098 42 26.9922 42Z" fill="#444444"/>
<path d="M41.3203 29.0718C40.7028 29.0718 40.0852 28.8247 39.6734 28.3307C38.85 27.4249 38.9323 25.9838 39.8381 25.1603L46.7963 18.9021C49.8843 16.1435 49.9255 12.438 48.9373 9.92642C47.9492 7.41488 45.4788 4.6975 41.3203 4.6975C37.1619 4.6975 34.6915 7.41488 33.7034 9.92642C32.7152 12.438 32.7976 16.1435 35.8444 18.9021C36.7502 19.7256 36.8325 21.1666 36.0091 22.0724C35.1856 22.9782 33.7446 23.0605 32.8388 22.2371C28.845 18.6551 27.5686 13.3437 29.5038 8.32067C31.4389 3.29759 35.9267 0.209656 41.2792 0.209656C46.6316 0.209656 51.1606 3.29759 53.0546 8.32067C54.9897 13.3026 53.6722 18.6551 49.7196 22.2371L42.7614 28.4953C42.3908 28.9071 41.8556 29.0718 41.3203 29.0718Z" fill="#444444"/>
<path d="M36.0084 24.0487C35.6379 24.0487 35.2262 23.9663 34.8556 23.7193C31.0677 21.4548 28.6797 17.2963 28.6797 12.8497C28.6797 5.89148 34.3615 0.209656 41.3197 0.209656C48.2779 0.209656 53.9598 5.89148 53.9598 12.8497C53.9598 14.0849 52.9716 15.073 51.7364 15.073C50.5013 15.073 49.5131 14.0849 49.5131 12.8497C49.5131 8.36184 45.8487 4.6975 41.3609 4.6975C36.8731 4.6975 33.2087 8.36184 33.2087 12.8497C33.2087 15.7318 34.6909 18.3668 37.2024 19.849C38.2729 20.4666 38.6023 21.8665 37.9847 22.937C37.5318 23.6781 36.7907 24.0487 36.0084 24.0487Z" fill="#444444"/>
<path d="M26.9917 42C26.3741 42 25.7565 41.7529 25.3448 41.2589C24.5214 40.3531 24.6037 38.912 25.5095 38.0886L41.2375 23.9251C42.1433 23.1017 43.5844 23.184 44.4078 24.0898C45.2313 24.9956 45.1489 26.4367 44.2431 27.2601L28.5151 41.4236C28.0622 41.7941 27.527 42 26.9917 42Z" fill="#444444"/>
<path d="M63.5534 31.2539C63.4299 31.0481 63.3887 30.801 63.3887 30.5128V19.2315C63.3887 18.161 63.5945 17.1728 64.0063 16.267C64.418 15.3201 64.9944 14.4966 65.7355 13.7967C66.4766 13.0967 67.3001 12.5203 68.2471 12.1498C69.194 11.738 70.1822 11.5322 71.2527 11.5322C72.4055 11.5322 73.5172 11.7792 74.5877 12.2733C75.6582 12.7674 76.5228 13.4261 77.3051 14.2907C78.0874 13.4261 78.9931 12.7674 80.0636 12.2733C81.1341 11.7792 82.2458 11.5322 83.3986 11.5322C84.428 11.5322 85.4161 11.738 86.3631 12.1086C87.3101 12.4791 88.1335 13.0144 88.8746 13.7143C89.6157 14.4143 90.1921 15.1965 90.6039 16.1023C91.0156 17.0081 91.2626 17.9963 91.3038 19.0256C91.3038 19.0668 91.345 19.1491 91.345 19.2315V30.5128C91.345 31.048 91.1391 31.501 90.8097 31.8715C90.4392 32.2421 89.9863 32.4067 89.4922 32.4067C88.957 32.4067 88.5041 32.2421 88.1335 31.8715C87.763 31.501 87.5571 31.0892 87.5571 30.554V19.1903C87.5159 18.655 87.3924 18.1198 87.1865 17.6669C86.9807 17.1728 86.6513 16.8023 86.2807 16.4729C85.9102 16.1435 85.4573 15.8553 84.9632 15.6906C84.4691 15.5259 83.9751 15.4024 83.4398 15.4024C82.9046 15.4024 82.3693 15.4847 81.8753 15.6906C81.3812 15.8965 80.9283 16.1847 80.5577 16.5141C80.1872 16.8846 79.899 17.2963 79.6519 17.7904C79.4461 18.2845 79.3225 18.7786 79.2814 19.2727V30.554C79.2814 31.0892 79.1167 31.5421 78.7461 31.9127C78.3756 32.2832 77.9638 32.4479 77.4286 32.4479C76.8933 32.4479 76.4404 32.2832 76.0699 31.9127C75.6582 31.5421 75.4523 31.0892 75.4523 30.5952V19.1903C75.4111 18.655 75.2876 18.161 75.0817 17.6669C74.8759 17.1728 74.5465 16.8023 74.1759 16.4317C73.8054 16.1024 73.3937 15.8141 72.8996 15.6494C72.4055 15.4848 71.9114 15.3613 71.3762 15.3613C70.2645 15.3613 69.3176 15.7318 68.4941 16.4729C68.1235 16.8435 67.7942 17.2552 67.5883 17.7492C67.3824 18.2433 67.2589 18.7374 67.2589 19.2315V30.5128C67.2589 31.048 67.0942 31.501 66.7237 31.8715C66.3531 32.2421 65.9414 32.4067 65.4061 32.4067C65.1179 32.4067 64.8709 32.3656 64.665 32.2421C64.0886 32.0774 63.7592 31.748 63.5534 31.2539Z" fill="#444444"/>
<path d="M104.685 21.6607C104.685 20.2608 104.932 18.9433 105.426 17.7081C105.92 16.4729 106.62 15.4024 107.525 14.4554C108.431 13.5085 109.502 12.8086 110.696 12.2733C111.89 11.7381 113.207 11.491 114.607 11.491C115.966 11.491 117.283 11.7381 118.477 12.2733C119.671 12.8086 120.742 13.5085 121.648 14.4554C122.554 15.4024 123.212 16.4729 123.706 17.7081C124.2 18.9433 124.447 20.2608 124.447 21.6607V30.554C124.447 31.0892 124.283 31.5422 123.912 31.9127C123.542 32.2833 123.13 32.448 122.595 32.448C122.059 32.448 121.607 32.2833 121.236 31.9127C120.865 31.5422 120.66 31.0892 120.66 30.554V21.7842C120.66 20.9196 120.495 20.0961 120.207 19.3139C119.918 18.5316 119.507 17.8728 118.972 17.2552C118.436 16.6788 117.778 16.1847 117.036 15.8553C116.295 15.5259 115.513 15.3613 114.648 15.3613C113.784 15.3613 112.96 15.5259 112.219 15.8553C111.478 16.1847 110.819 16.6376 110.284 17.2141C109.749 17.7905 109.296 18.4904 109.008 19.2727C108.72 20.055 108.555 20.8784 108.555 21.7431V30.5952C108.555 31.1304 108.39 31.5833 108.02 31.9539C107.649 32.3244 107.237 32.4891 106.702 32.4891C106.167 32.4891 105.714 32.3244 105.343 31.9539C104.973 31.5833 104.767 31.1304 104.767 30.5952V21.6607H104.685Z" fill="#444444"/>
<path d="M128.565 22.8547C128.565 21.3724 128.854 19.9314 129.43 18.6138C130.006 17.2551 130.789 16.1023 131.818 15.0318C132.847 14.0025 134 13.179 135.359 12.6438C136.718 12.0674 138.118 11.7792 139.6 11.7792H139.723C140.341 11.7792 140.835 11.9439 141.205 12.3144C141.576 12.685 141.741 13.1379 141.741 13.6731C141.741 14.2084 141.535 14.6613 141.164 15.0318C140.794 15.4024 140.3 15.5671 139.764 15.5671H139.641C138.694 15.5671 137.747 15.7729 136.882 16.1023C136.018 16.4729 135.235 17.0081 134.577 17.6669C133.918 18.3257 133.383 19.1079 133.012 19.9726C132.642 20.8372 132.436 21.7842 132.436 22.7723V30.4305C132.436 30.9657 132.271 31.4186 131.9 31.7891C131.53 32.1597 131.118 32.3244 130.583 32.3244C130.048 32.3244 129.554 32.1597 129.183 31.7891C128.812 31.4186 128.607 30.9657 128.607 30.4305V22.8547H128.565Z" fill="#444444"/>
<path d="M98.0152 11.7792C97.4799 11.7792 97.027 11.985 96.6565 12.3556C96.2859 12.7262 96.0801 13.1791 96.0801 13.7143V30.5128C96.0801 31.048 96.2859 31.501 96.6565 31.8303C97.027 32.2009 97.4799 32.4067 98.0152 32.4067C98.5504 32.4067 99.0033 32.2009 99.3739 31.8303C99.7445 31.501 99.9091 31.048 99.9091 30.5128V13.7143C99.9091 13.1791 99.7445 12.7262 99.3739 12.3556C99.0033 11.9439 98.5504 11.7792 98.0152 11.7792Z" fill="#444444"/>
<path d="M97.974 4.86218C97.3564 4.86218 96.8623 5.06805 96.4506 5.47977C96.0389 5.8915 95.833 6.42672 95.833 7.04431C95.833 7.33252 95.8742 7.57955 95.9977 7.86776C96.2036 8.40301 96.5741 8.77357 97.1505 9.06178C97.4387 9.1853 97.7269 9.22649 97.974 9.22649C98.5916 9.22649 99.0857 9.02063 99.5386 8.56773C99.9503 8.156 100.156 7.6619 100.156 7.04431C100.156 6.42672 99.9503 5.8915 99.5386 5.47977C99.1268 5.06805 98.5916 4.86218 97.974 4.86218Z" fill="#0088CC"/>
<path d="M147.093 11.7792C146.558 11.7792 146.105 11.985 145.735 12.3556C145.364 12.7262 145.158 13.1791 145.158 13.7143V30.5128C145.158 31.048 145.364 31.501 145.735 31.8303C146.105 32.2009 146.558 32.4067 147.093 32.4067C147.629 32.4067 148.081 32.2009 148.452 31.8303C148.823 31.501 148.987 31.048 148.987 30.5128V13.7143C148.987 13.1791 148.823 12.7262 148.452 12.3556C148.081 11.9439 147.629 11.7792 147.093 11.7792Z" fill="#444444"/>
<path d="M146.187 9.02064C146.475 9.14415 146.763 9.18534 147.01 9.18534C147.628 9.18534 148.122 8.97943 148.575 8.52653C148.986 8.1148 149.192 7.62075 149.192 7.00316C149.192 6.38557 148.986 5.8503 148.575 5.43858C148.163 5.02685 147.628 4.82098 147.01 4.82098C146.393 4.82098 145.898 5.02685 145.487 5.43858C145.075 5.8503 144.869 6.38557 144.869 7.00316C144.869 7.29137 144.91 7.53841 145.034 7.82662C145.24 8.36186 145.61 8.73243 146.187 9.02064Z" fill="#0088CC"/>
<path d="M153.886 31.2539C153.763 31.0481 153.722 30.801 153.722 30.5128V19.2315C153.722 18.161 153.928 17.1728 154.339 16.267C154.751 15.3201 155.327 14.4966 156.069 13.7967C156.81 13.0967 157.633 12.5203 158.58 12.1498C159.527 11.738 160.515 11.5322 161.586 11.5322C162.739 11.5322 163.85 11.7792 164.921 12.2733C165.991 12.7674 166.856 13.4261 167.638 14.2907C168.42 13.4261 169.326 12.7674 170.397 12.2733C171.467 11.7792 172.579 11.5322 173.732 11.5322C174.761 11.5322 175.749 11.738 176.696 12.1086C177.643 12.4791 178.466 13.0144 179.208 13.7143C179.949 14.4143 180.525 15.1965 180.937 16.1023C181.349 17.0081 181.596 17.9963 181.637 19.0256C181.637 19.0668 181.678 19.1491 181.678 19.2315V30.5128C181.678 31.048 181.472 31.501 181.143 31.8715C180.772 32.2421 180.319 32.4067 179.825 32.4067C179.29 32.4067 178.837 32.2421 178.467 31.8715C178.096 31.501 177.89 31.0892 177.89 30.554V19.1903C177.849 18.655 177.725 18.1198 177.52 17.6669C177.314 17.1728 176.984 16.8023 176.614 16.4729C176.243 16.1435 175.79 15.8553 175.296 15.6906C174.802 15.5259 174.308 15.4024 173.773 15.4024C173.238 15.4024 172.702 15.4847 172.208 15.6906C171.714 15.8965 171.261 16.1847 170.891 16.5141C170.52 16.8846 170.232 17.2963 169.985 17.7904C169.779 18.2845 169.656 18.7786 169.614 19.2727V30.554C169.614 31.0892 169.45 31.5421 169.079 31.9127C168.709 32.2832 168.297 32.4479 167.762 32.4479C167.226 32.4479 166.773 32.2832 166.403 31.9127C165.991 31.5421 165.785 31.0892 165.785 30.5952V19.1903C165.744 18.655 165.621 18.161 165.415 17.6669C165.209 17.1728 164.88 16.8023 164.509 16.4317C164.138 16.1024 163.727 15.8141 163.233 15.6494C162.739 15.4848 162.244 15.3613 161.709 15.3613C160.598 15.3613 159.651 15.7318 158.827 16.4729C158.457 16.8435 158.127 17.2552 157.921 17.7492C157.715 18.2433 157.592 18.7374 157.592 19.2315V30.5128C157.592 31.048 157.427 31.501 157.057 31.8715C156.686 32.2421 156.274 32.4067 155.739 32.4067C155.451 32.4067 155.204 32.3656 154.998 32.2421C154.463 32.0774 154.092 31.748 153.886 31.2539Z" fill="#444444"/>
<path d="M185.013 28.9483C184.807 28.5777 184.684 28.2071 184.684 27.8366C184.684 27.5483 184.766 27.2601 184.889 27.0131C185.013 26.7661 185.219 26.5602 185.425 26.4367C185.672 26.272 186.001 26.1896 186.372 26.1896C186.989 26.1896 187.607 26.4367 188.183 26.9719C188.595 27.5895 189.213 28.0836 189.995 28.4542C190.777 28.8247 191.642 29.0306 192.589 29.0306C193.042 29.0306 193.495 28.9894 193.947 28.8659C194.4 28.7424 194.771 28.5777 195.1 28.3718C195.8 27.9189 196.171 27.3013 196.171 26.5602C196.171 25.8603 195.594 25.2015 194.4 24.5427C193.947 24.3369 193.495 24.131 193 23.9251C192.506 23.7605 191.848 23.5134 191.065 23.2664C190.201 22.937 189.46 22.6076 188.883 22.3194C188.266 22.0312 187.73 21.6606 187.236 21.2489C185.96 20.2608 185.342 18.9432 185.342 17.3787C185.342 16.4729 185.507 15.6494 185.878 14.9083C186.248 14.1672 186.783 13.5496 187.442 13.0144C188.101 12.5203 188.842 12.1086 189.707 11.8616C190.571 11.6145 191.477 11.4498 192.465 11.4498C193.865 11.4498 195.1 11.6557 196.212 12.1086C197.488 12.6027 198.353 13.3437 198.847 14.2907C198.971 14.6201 199.053 14.9083 199.053 15.1965C199.053 15.6494 198.929 16.02 198.641 16.3082C198.271 16.7199 197.859 16.9258 197.406 16.9258C197.159 16.9258 196.953 16.8846 196.747 16.7611C196.088 16.1847 195.471 15.7729 194.853 15.5259C194.236 15.2789 193.536 15.1554 192.753 15.1554C191.642 15.1554 190.777 15.32 190.201 15.6494C189.501 16.0612 189.171 16.6376 189.171 17.3787C189.171 17.7492 189.254 18.0786 189.46 18.3257C189.665 18.5727 189.954 18.8197 190.324 19.0256C190.53 19.1491 190.818 19.2726 191.148 19.3961C191.477 19.5197 191.848 19.6432 192.301 19.7667C192.753 19.8902 193.042 20.0137 193.165 20.0549C194.194 20.3843 195.1 20.7137 195.883 21.0431C196.665 21.3724 197.365 21.7842 197.941 22.2371C199.3 23.3076 200 24.7074 200 26.3955C200 27.2601 199.794 28.0836 199.465 28.8247C199.094 29.607 198.559 30.2658 197.9 30.801C197.2 31.3774 196.418 31.7892 195.512 32.1185C194.606 32.4479 193.659 32.6126 192.63 32.6126C190.983 32.6126 189.501 32.3244 188.266 31.748C186.742 31.1304 185.672 30.1834 185.013 28.9483Z" fill="#444444"/>
</svg>
