<svg xmlns="http://www.w3.org/2000/svg" xmlns:xlink="http://www.w3.org/1999/xlink" fill="none" viewBox="0 0 369 191"><path fill="#21272D" d="M60.848 66.793V33.08H36.207V.304L14.687 6.62A20 20 0 0 0 .323 25.811v82.42c0 32.776 13.636 46.589 60.526 41.907v-31.84c-15.79.937-24.641 0-24.641-10.067V66.793h24.641Z"/><path fill="#21272D" fill-rule="evenodd" d="M164.629 48.157V37.804h35.074v110.138h-35.074v-10.353c-7.716 8.37-19.174 13.437-34.84 13.437-30.632 0-55.885-25.332-55.885-58.153S99.157 34.72 129.789 34.72c15.666 0 27.124 5.066 34.84 13.437Zm-28.384 17.73c20.084 0 28.638 10.371 28.638 26.72v.374c0 16.537-8.461 26.907-28.638 26.907-19.991 0-30.126-10.464-30.126-26.72v-.747c0-16.163 10.135-26.533 30.126-26.533ZM288.078 34.72c-15.815 0-27.38 5.008-35.169 13.282V37.768h-35.406V190.19h35.406v-53.783c7.789 8.275 19.354 13.283 35.169 13.283 12.323 0 23.785-3.978 33.113-10.817-1.013-2.685-1.522-5.719-1.522-9.043v-.623c0-12.873 7.715-21.337 22.943-22.06a59.714 59.714 0 0 0 1.878-14.942c0-32.444-25.492-57.484-56.412-57.484ZM253.303 97.22c-.26-1.6-.394-3.273-.394-5.017 0-1.65.12-3.239.354-4.76 1.275-10.05 7.127-17.28 17.472-20.287 3.1-.984 6.506-1.506 10.136-1.517.61-.021 1.23-.031 1.86-.031 19.823 0 28.266 10.235 28.266 26.372v.368c0 16.321-8.352 26.557-28.266 26.557-17.736 0-27.612-8.345-29.428-21.685Z" clip-rule="evenodd"/><circle cx="345.282" cy="130.813" r="19.084" fill="url(#a)"/><path fill="#21272D" d="M368.639 130.611c0-11.808-6.178-19.298-20.683-19.298-14.438 0-21.758 7.49-21.758 19.163v.539c0 11.741 7.32 19.298 21.758 19.298 14.572 0 20.683-7.49 20.683-19.433v-.269Z"/><defs><pattern id="a" width="1" height="1" patternContentUnits="objectBoundingBox"><use xlink:href="#b" transform="matrix(.00322 0 0 .00322 -.39 0)"/></pattern></defs></svg>