<svg width="120" height="38" viewBox="0 0 120 38" fill="none" xmlns="http://www.w3.org/2000/svg">
<path fill-rule="evenodd" clip-rule="evenodd" d="M27.1471 7.9335V11.6567H9.65245V7.9335H27.1471ZM3.70547 19.0271V31.0705H0V19.0271H3.70547ZM25.7682 31.0705H22.0627V19.0271H25.7682V31.0705ZM11.0314 19.0271H14.7368V31.0705H11.0314V19.0271ZM36.7996 19.0271V31.0705H33.0941V19.0271H36.7996ZM5.51569 19.0271H9.22116V31.0705H5.51569V19.0271ZM31.2839 19.0271V31.0705H27.5784V19.0271H31.2839ZM16.5471 19.0271H20.2525V31.0705H16.5471V19.0271ZM0 13.4803H36.7996V17.2035H0V13.4803ZM0 36.6173V32.8941H36.7996V36.6173H0Z" fill="#DD3D1A"/>
<path d="M18.3998 4.72319C19.0617 4.72319 19.7171 4.8543 20.3287 5.10906C20.8429 5.32324 21.3176 5.6213 21.7341 5.99064L21.8685 6.10989H26.3842L25.9756 5.39813C25.5942 4.73396 25.1273 4.12129 24.5857 3.57656C23.7735 2.75983 22.8091 2.11182 21.7478 1.66969C20.6864 1.22759 19.5487 1 18.3998 1C17.2509 1 16.1132 1.22759 15.0518 1.66969C13.9904 2.11183 13.0261 2.75984 12.2139 3.57658C11.6723 4.1213 11.2054 4.73396 10.824 5.39813L10.4154 6.10989H14.931L15.0655 5.99064C15.4819 5.6213 15.9567 5.32324 16.4709 5.10906C17.0825 4.8543 17.7379 4.72319 18.3998 4.72319Z" fill="#DD3D1A"/>
<path d="M54.165 20.0779C53.782 19.7189 53.5906 19.2402 53.5906 18.6418C53.5906 18.0434 53.8419 17.5767 54.3445 17.2416C54.8471 16.8826 55.5173 16.7031 56.3551 16.7031C57.4082 16.7031 58.2339 16.9663 58.8323 17.4929C59.4546 18.0195 59.8735 18.8214 60.0889 19.8984H67.0898C66.8505 17.9597 66.2282 16.3919 65.2229 15.1952C64.2177 13.9745 62.9611 13.077 61.4532 12.5025C59.9692 11.9281 58.3656 11.6409 56.6423 11.6409C54.5599 11.6409 52.7888 11.9879 51.3287 12.682C49.8926 13.3522 48.7916 14.2737 48.0257 15.4465C47.2598 16.5954 46.8768 17.8879 46.8768 19.324C46.8768 20.5207 47.0803 21.526 47.4872 22.3397C47.8941 23.1535 48.4326 23.8237 49.1028 24.3503C49.773 24.8768 50.5269 25.3076 51.3646 25.6428C52.2023 25.9539 53.064 26.2172 53.9496 26.4326C54.8591 26.648 55.7327 26.8515 56.5705 27.0429C57.4082 27.2105 58.1621 27.4139 58.8323 27.6533C59.5264 27.8687 60.0649 28.1679 60.4479 28.5509C60.8548 28.9099 61.0582 29.4005 61.0582 30.0228C61.0582 30.7409 60.771 31.3034 60.1966 31.7102C59.6461 32.0932 58.8084 32.2847 57.6834 32.2847C56.5346 32.2847 55.5891 31.9855 54.8471 31.3872C54.1052 30.7888 53.6384 29.9391 53.447 28.8381H46.5537C46.817 30.7528 47.4513 32.3445 48.4565 33.6131C49.4618 34.8577 50.7423 35.7912 52.2981 36.4134C53.8538 37.0358 55.625 37.3469 57.6116 37.3469C59.5743 37.3469 61.3215 37.0238 62.8534 36.3776C64.3852 35.7313 65.5819 34.8098 66.4436 33.6131C67.3292 32.3924 67.772 30.9204 67.772 29.1971C67.772 27.9525 67.5685 26.9113 67.1616 26.0736C66.7787 25.2358 66.2401 24.5538 65.546 24.0272C64.8759 23.4767 64.1219 23.0458 63.2842 22.7347C62.4465 22.3996 61.5729 22.1363 60.6633 21.9449C59.7777 21.7533 58.9161 21.5858 58.0783 21.4422C57.2406 21.2747 56.4747 21.0951 55.7806 20.9037C55.1104 20.6882 54.5719 20.413 54.165 20.0779Z" fill="#1B0F0F"/>
<path fill-rule="evenodd" clip-rule="evenodd" d="M69.1612 12.2871V36.7006H80.7218C83.7376 36.7006 86.0473 36.0664 87.6509 34.7979C89.2546 33.5293 90.0564 31.7102 90.0564 29.3407C90.0564 27.6653 89.5418 26.301 88.5125 25.2478C87.8991 24.6201 87.1368 24.1242 86.2257 23.76C86.6658 23.4832 87.0571 23.1534 87.3996 22.7705C88.2373 21.8611 88.6562 20.7242 88.6562 19.3598C88.6562 17.2057 87.8424 15.4944 86.2148 14.2258C84.5873 12.9334 82.3493 12.2871 79.5011 12.2871H69.1612ZM75.7314 17.4211V21.9807H79.2139C80.1712 21.9807 80.8654 21.7773 81.2962 21.3704C81.727 20.9396 81.9424 20.401 81.9424 19.7548C81.9424 19.0368 81.727 18.4743 81.2962 18.0674C80.8654 17.6365 80.2191 17.4211 79.3575 17.4211H75.7314ZM75.7314 26.648V31.5666H80.5423C81.4757 31.5666 82.1698 31.3392 82.6246 30.8845C83.1033 30.4058 83.3426 29.8074 83.3426 29.0894C83.3426 28.3953 83.1033 27.8209 82.6246 27.3661C82.1698 26.8874 81.4518 26.648 80.4704 26.648H75.7314Z" fill="#1B0F0F"/>
<path d="M105.515 36.7006L101.853 31.0999L100.824 29.2809L99.7707 31.0999L96.0728 36.7006H89.2514L97.4371 24.1349L89.8258 12.2871H97.4012L100.453 16.8826L101.554 18.9373L102.679 16.8826L105.731 12.2871H112.552L104.941 23.9913L113.09 36.7006H105.515Z" fill="#1B0F0F"/>
<path d="M113.789 18.7136V36.7006H120V18.7136H113.789Z" fill="#DD3D1A"/>
<path d="M113.789 12.2872V17.0262H120V12.2872H113.789Z" fill="#DD3D1A"/>
</svg>
