<svg width="168" height="32" viewBox="0 0 168 32" fill="none" xmlns="http://www.w3.org/2000/svg">
<g clip-path="url(#clip0_13_2)">
<path d="M152.067 19.0163C152.264 22.3896 155.041 24.4729 160.032 24.4729C164.727 24.4729 167.669 22.5208 167.669 19.5129C167.669 16.7018 165.686 15.2806 161.984 14.5871L159.416 14.0906C156.77 13.5626 156.145 13.066 156.145 12.0758C156.145 10.7858 157.466 9.99246 159.812 9.99246H160.275C162.954 9.99246 164.573 11.1825 164.707 12.7379H168.011C167.735 9.33037 165.058 7.27845 160.032 7.27845C156.037 7.27845 152.858 9.1306 152.858 12.3355C152.858 15.0152 154.744 16.3308 158.414 17.03L161.156 17.5523C163.702 18.0146 164.396 18.6767 164.396 19.7012C164.396 21.1282 162.909 21.7503 160.263 21.7503H159.815C157.338 21.7503 155.552 20.8228 155.386 19.0049L152.067 19.0163ZM149.322 7.60094L143.306 20.2064L137.09 7.61235H133.454L141.588 23.8793L140.463 26.1937C140.032 27.1526 139.57 27.3838 138.48 27.3838H134.216V30.2605H139.173C141.191 30.2605 142.181 29.6897 143.169 27.6149L152.823 7.61521L149.322 7.60094ZM122.116 21.7617C118.808 21.7617 116.328 19.744 116.328 15.8771C116.328 12.0101 118.808 9.99246 122.116 9.99246H122.444C125.521 9.99246 128.394 12.0415 128.394 15.8771C128.394 19.7126 125.521 21.7617 122.444 21.7617H122.116ZM113.058 15.8771C113.058 21.2651 116.794 24.4729 121.785 24.4729C125.058 24.4729 127.042 23.514 128.394 21.8273V24.1418H131.534V7.61235H128.394V9.92682C127.042 8.2402 125.058 7.27845 121.785 7.27845C116.794 7.27845 113.058 10.4833 113.058 15.8742V15.8771ZM109.588 7.61235L105.255 20.8342L100.661 7.61235H97.122L92.7271 20.5717L88.2294 7.61235H84.8248L90.8407 24.1418H94.4793L98.8742 11.4137L103.309 24.1418H106.976L112.995 7.61235H109.588ZM72.773 24.1418H76.0149V15.84C76.0149 12.501 77.7273 10.7173 80.8665 10.7173H83.6404V7.61235H81.0948C78.221 7.61235 76.7313 8.70252 75.8409 11.0826V7.61235H72.773V24.1418ZM56.6944 13.8937C57.3223 11.4137 59.1744 9.99246 61.9826 9.99246H62.4449C65.0904 9.99246 66.9426 11.2168 67.1081 13.8937H56.6944ZM70.5441 15.1836C70.5441 10.4862 67.3507 7.27845 62.2138 7.27845C57.6847 7.21282 53.1557 10.4177 53.2242 15.7401C53.2242 21.4278 57.1225 24.47 62.3793 24.47C66.5773 24.47 69.7508 22.4523 70.3472 19.2446H67.0396C66.4689 20.8314 64.825 21.7589 62.5791 21.7589H62.1139C59.3057 21.7589 56.7943 19.941 56.5289 16.4364H70.5441V15.1836ZM34.5857 24.1418H37.8277V15.8114C37.8277 12.3868 40.4703 9.99246 43.3813 9.99246H43.8436C46.6204 9.99246 48.0073 11.8417 48.0073 14.8839V24.1418H51.2493V14.0906C51.2407 10.1323 48.6295 7.27845 44.1661 7.27845C41.1581 7.27845 39.1091 8.46851 37.8191 10.352V1H34.5772L34.5857 24.1418ZM23.1161 20.5032C23.1161 22.7862 24.4717 24.1418 26.7519 24.1418H32.4054V21.2623H27.6823C26.7262 21.2623 26.3609 20.9769 26.3609 19.941V10.3891H31.6777V7.61235H26.3467V2.25569H23.1161V7.61235H18.8354V10.3891H23.1161V20.5032ZM9.15513 21.7617C5.78474 21.7617 3.27336 19.4786 3.27336 15.8771C3.27336 12.2755 5.78474 9.99246 9.15513 9.99246H9.6203C12.9907 9.99246 15.5049 12.2755 15.5049 15.8771C15.5049 19.4786 12.9907 21.7617 9.6203 21.7617H9.15513ZM0 15.8771C0 21.0682 3.86696 24.4729 9.38914 24.4729C14.9113 24.4729 18.7783 21.0682 18.7783 15.8771C18.7783 10.6859 14.9085 7.27845 9.38914 7.27845C3.86981 7.27845 0 10.6859 0 15.8771Z" fill="#111111"/>
</g>
<defs>
<clipPath id="clip0_13_2">
<rect width="168" height="32" fill="white"/>
</clipPath>
</defs>
</svg>
