<svg xmlns="http://www.w3.org/2000/svg" fill="none" viewBox="0 0 501 62"><path fill="#FACB1D" d="M492.637 61.203c-4.446 0-7.382-2.768-7.382-6.879 0-4.194 2.936-7.046 7.382-7.046 4.445 0 7.381 2.852 7.381 7.046 0 4.11-2.936 6.879-7.381 6.879Z"/><path fill="#181817" d="M154.739 54.24c-.251.42 0 1.007.671 1.51 4.194 3.356 11.576 5.536 18.622 5.536 12.918 0 21.557-7.465 21.557-18.621 0-18.454-23.738-18.118-23.738-23.067 0-1.845 1.678-3.02 4.278-3.02 2.936.252 7.717 2.013 11.827 4.362.671.42 1.258.168 1.51-.671l5.284-11.827c.252-.42 0-1.09-.671-1.51-5.284-3.607-12.833-6.04-18.789-6.04-12.75 0-21.222 7.466-21.222 18.706 0 18.286 23.571 18.034 23.571 22.983 0 1.93-1.762 3.188-4.446 3.188-3.187-.252-7.801-1.846-11.659-4.027-.671-.42-1.259-.167-1.51.671l-5.285 11.828ZM198.454 2.15c-.587 0-1.174.588-1.174 1.259v12.666c0 .67.587 1.174 1.174 1.174h13.924v41.605c0 .587.588 1.174 1.259 1.174h14.847c.671 0 1.174-.587 1.174-1.174V17.249h12.498c.587 0 1.258-.503 1.342-1.174l1.258-12.75c.084-.587-.419-1.174-1.174-1.174h-45.128ZM277.756 2.15c-.755 0-1.426.672-1.426 1.427v36.572c0 3.774-2.181 6.039-5.872 6.039s-5.872-2.265-5.872-6.123V3.577c0-.755-.587-1.426-1.426-1.426h-14.427c-.755 0-1.426.67-1.426 1.426v34.978c.168 14.847 8.136 22.648 23.151 22.648 15.182 0 23.151-7.801 23.151-22.648V3.577c0-.755-.587-1.426-1.426-1.426h-14.427ZM300.345 2.15c-.587 0-1.174.588-1.174 1.259V58.77c0 .671.587 1.258 1.174 1.258h19.46c17.783 0 29.61-11.66 29.61-28.938 0-17.448-11.827-28.94-29.61-28.94h-19.46Zm16.105 42.78V17.25h4.362c6.459 0 10.82 5.535 10.82 13.84 0 8.304-4.361 13.84-10.82 13.84h-4.362ZM355.31 2.15c-.587 0-1.175.588-1.175 1.259v55.445c0 .587.588 1.174 1.175 1.174h14.847c.755 0 1.258-.587 1.258-1.174V3.409c0-.671-.503-1.258-1.258-1.258H355.31ZM406.42 61.203c-17.867 0-29.778-12.08-29.778-30.114 0-18.202 11.911-30.28 29.778-30.28 17.866 0 29.777 12.078 29.777 30.28 0 18.035-11.911 30.114-29.777 30.114Zm0-43.45c-6.878 0-11.492 5.368-11.492 13.337 0 7.968 4.614 13.336 11.492 13.336 6.878 0 11.492-5.368 11.492-13.337 0-7.968-4.614-13.336-11.492-13.336ZM440.785 54.24c-.251.42 0 1.007.671 1.51 4.194 3.356 11.576 5.536 18.622 5.536 12.918 0 21.557-7.465 21.557-18.621 0-18.454-23.738-18.118-23.738-23.067 0-1.845 1.678-3.02 4.278-3.02 2.936.252 7.717 2.013 11.827 4.362.671.42 1.258.168 1.51-.671l5.284-11.827c.252-.42 0-1.09-.671-1.51-5.284-3.607-12.833-6.04-18.789-6.04-12.75 0-21.222 7.466-21.222 18.706 0 18.286 23.571 18.034 23.571 22.983 0 1.93-1.762 3.188-4.446 3.188-3.187-.252-7.801-1.846-11.659-4.027-.671-.42-1.258-.167-1.51.671l-5.285 11.828Z"/><path fill="#FACB1D" d="M33.319 2.15c-.587 0-1.175.588-1.175 1.259v25.919L17.635 3.241c-.336-.67-1.175-1.09-1.93-1.09H1.193c-.671 0-1.175.587-1.175 1.258v55.445c0 .587.504 1.174 1.175 1.174H16.04c.754 0 1.258-.587 1.258-1.174V32.851l14.595 26.087c.42.67 1.174 1.09 1.761 1.09h14.512c.755 0 1.258-.587 1.258-1.174V3.409c0-.671-.503-1.258-1.258-1.258H33.319ZM91.208 3.241c-.252-.503-1.175-1.09-2.013-1.09H72.083c-.839 0-1.762.587-2.013 1.09L51.113 58.938c-.252.503.084 1.09.755 1.09h16.608c.755 0 1.426-.42 1.761-1.09l2.517-8.808h15.77l2.516 8.808a1.956 1.956 0 0 0 1.761 1.09h16.609c.671 0 1.006-.587.755-1.09L91.208 3.24Zm-6.04 34.895H76.11l4.53-15.938 4.53 15.938ZM109.85 54.24c-.252.42 0 1.007.671 1.51 4.194 3.356 11.576 5.536 18.622 5.536 12.917 0 21.557-7.465 21.557-18.621 0-18.454-23.738-18.118-23.738-23.067 0-1.845 1.677-3.02 4.278-3.02 2.935.252 7.717 2.013 11.827 4.362.671.42 1.258.168 1.51-.671l5.284-11.827c.252-.42 0-1.09-.671-1.51-5.284-3.607-12.834-6.04-18.789-6.04-12.75 0-21.222 7.466-21.222 18.706 0 18.286 23.571 18.034 23.571 22.983 0 1.93-1.762 3.188-4.446 3.188-3.188-.252-7.801-1.846-11.66-4.027-.671-.42-1.258-.167-1.509.671l-5.285 11.828Z"/></svg>