<svg width="120" height="27" viewBox="0 0 120 27" fill="none" xmlns="http://www.w3.org/2000/svg">
<path d="M47.8561 12.0553H54.8751V18.8779C53.3183 20.88 50.7992 22.1164 47.7323 22.1164C42.7895 22.1164 39.0078 18.1858 39.0078 13.1675C39.0078 8.14908 42.7646 4.34229 47.7064 4.34229C51.1173 4.34229 54.0833 6.09728 54.9979 8.64376L52.4286 9.90506C51.6621 8.24851 49.8826 7.16121 47.7064 7.16121C44.3711 7.16071 42.0011 9.63262 42.0011 13.1675C42.0011 16.752 44.4233 19.3229 47.7348 19.3229C49.5391 19.3229 50.9478 18.8038 51.9862 17.9139V14.8235H47.8605L47.8561 12.0553Z" fill="#333333"/>
<path d="M60.9326 5.94737C60.93 6.41861 60.7417 6.86981 60.4085 7.20303C60.0754 7.53626 59.6243 7.72461 59.1531 7.72722C58.9211 7.72566 58.6916 7.67838 58.4778 7.58808C58.264 7.49777 58.07 7.36622 57.9071 7.20093C57.7442 7.03564 57.6154 6.83986 57.5281 6.62477C57.4408 6.40968 57.3968 6.17949 57.3985 5.94737C57.3985 5.00823 58.1893 4.19238 59.1531 4.19238C60.1169 4.19238 60.9326 5.00823 60.9326 5.94737ZM60.5126 9.80388V21.8919H57.7693V9.80388H60.5126Z" fill="#333333"/>
<path d="M69.7047 21.8942H67.3322L62.2656 9.80615H65.256L68.5187 18.2107L71.7561 9.80864H74.7718L69.7047 21.8942Z" fill="#333333"/>
<path d="M79.6909 5.94737C79.6883 6.4187 79.4999 6.86997 79.1667 7.20321C78.8334 7.53644 78.3822 7.72474 77.9109 7.72722C77.6789 7.72566 77.4494 7.67838 77.2356 7.58808C77.0218 7.49777 76.8279 7.36622 76.6649 7.20093C76.502 7.03564 76.3732 6.83986 76.2859 6.62477C76.1986 6.40968 76.1546 6.17949 76.1563 5.94737C76.1563 5.00823 76.9471 4.19238 77.9109 4.19238C78.8747 4.19238 79.6909 5.00823 79.6909 5.94737ZM79.2704 9.80388V21.8919H76.5271V9.80388H79.2704Z" fill="#333333"/>
<path d="M93.5792 14.9966V21.8933H90.8131V15.4416C90.8131 13.4882 89.6763 12.302 87.9708 12.302C86.7351 12.302 85.5487 12.9448 84.9308 13.9829V21.8933H82.1875V9.8052H84.9308V11.4369C85.6724 10.275 87.106 9.55811 88.6384 9.55811C91.6516 9.55661 93.5792 11.6591 93.5792 14.9966Z" fill="#333333"/>
<path d="M108.263 9.78034V21.4483C108.263 24.7858 105.717 26.936 102.282 26.936C100.181 26.936 97.9074 26.1699 96.7949 24.9339L98.1787 23.0298C99.1431 23.9694 100.626 24.4636 102.183 24.4636C104.036 24.4636 105.519 23.2028 105.519 21.3986V20.0393C104.877 21.0774 103.27 21.8684 101.664 21.8684C98.4014 21.8684 95.8555 19.1494 95.8555 15.6886C95.8555 12.2522 98.4014 9.55811 101.664 9.55811C103.27 9.55811 104.877 10.3242 105.519 11.3872V9.78034H108.263ZM105.519 17.5426V13.8819C104.926 12.8439 103.616 12.1021 102.232 12.1021C100.156 12.1021 98.5744 13.6349 98.5744 15.6867C98.5744 17.7633 100.156 19.2956 102.232 19.2956C103.59 19.2976 104.926 18.5553 105.519 17.5426Z" fill="#333333"/>
<path d="M113.919 21.891H111.176V4.58667H113.919V21.891Z" fill="#333333"/>
<path d="M120 5.94737C119.997 6.4187 119.809 6.86997 119.475 7.20321C119.142 7.53644 118.691 7.72474 118.22 7.72722C117.987 7.72566 117.758 7.67838 117.544 7.58808C117.33 7.49777 117.136 7.36622 116.973 7.20093C116.811 7.03564 116.682 6.83986 116.594 6.62477C116.507 6.40968 116.463 6.17949 116.465 5.94737C116.465 5.00823 117.256 4.19238 118.22 4.19238C119.183 4.19238 120 5.00823 120 5.94737ZM119.579 9.80388V21.8919H116.836V9.80388H119.579Z" fill="#333333"/>
<path d="M22.7656 8.16949L22.6512 8.14463L22.6343 8.02829C21.9976 3.53293 18.1806 0.184523 13.5579 0.0671919L13.3318 0.064209L13.1031 0.0671919C5.75651 0.191483 0 6.00135 0 13.2933C0 20.6448 5.98019 26.6257 13.3308 26.6257C13.5843 26.6257 13.836 26.6186 14.0858 26.6044C21.1093 26.2116 26.6292 20.3848 26.6531 13.339C26.6621 12.9547 26.6342 10.978 25.2206 9.50785C24.7792 9.04648 23.9928 8.43994 22.7656 8.16949ZM23.793 13.3156C23.7826 18.8526 19.4496 23.4359 13.9278 23.7452C13.7289 23.7561 13.5326 23.7616 13.3313 23.7616C7.55936 23.7616 2.86409 19.0653 2.86409 13.2933C2.86409 7.58035 7.38042 3.02831 13.1454 2.93036H13.3313H13.4978C16.4499 3.00544 18.9879 5.01398 19.6778 7.81551L19.7275 8.02531H13.2254C12.5025 8.0172 11.7853 8.15523 11.117 8.43112C10.4488 8.70702 9.84307 9.11508 9.33631 9.63085C8.82956 10.1466 8.43219 10.7594 8.16804 11.4326C7.90389 12.1057 7.7784 12.8253 7.7991 13.5481C7.8198 14.2709 7.98627 14.9821 8.28851 15.639C8.59076 16.2959 9.02255 16.885 9.55799 17.3709C10.0934 17.8568 10.7215 18.2295 11.4045 18.4667C12.0875 18.7039 12.8113 18.8006 13.5326 18.7511C15.6508 18.706 17.6916 17.9462 19.3239 16.5951C20.9561 15.244 22.084 13.3809 22.5245 11.3081L22.5742 11.0814L22.7755 11.1957C22.912 11.2731 23.0371 11.369 23.1473 11.4806C23.6702 12.0126 23.7995 12.8816 23.7935 13.2669L23.793 13.3156ZM19.6877 10.8885L19.6291 11.1028C19.2521 12.4593 18.4472 13.6579 17.3342 14.52C16.2212 15.382 14.8596 15.8615 13.4521 15.887L13.3755 15.8905C13.3258 15.8939 13.2761 15.8954 13.2234 15.8954C13.1227 15.8954 13.0221 15.8889 12.9222 15.876C12.2901 15.7979 11.7115 15.4817 11.3044 14.9918C10.8973 14.5019 10.6922 13.8751 10.731 13.2393C10.7698 12.6034 11.0495 12.0063 11.5131 11.5695C11.9768 11.1327 12.5895 10.8892 13.2264 10.8885H19.6877Z" fill="#333333"/>
</svg>
