<svg fill="none" xmlns="http://www.w3.org/2000/svg" viewBox="0 0 224 22">
  <path d="M18.197 18.998c-.338.37-.776.705-1.316 1.04a8.772 8.772 0 0 1-1.787.84c-.675.235-1.35.437-2.058.571-.708.134-1.416.201-2.125.201-1.484 0-2.867-.268-4.182-.839-1.316-.57-2.462-1.31-3.44-2.283a10.378 10.378 0 0 1-2.294-3.425c-.573-1.31-.843-2.686-.843-4.163 0-1.478.27-2.854.843-4.164.573-1.31 1.315-2.45 2.294-3.424a10.432 10.432 0 0 1 3.44-2.284A10.937 10.937 0 0 1 10.91.23c1.282 0 2.496.168 3.677.504 1.146.335 2.158.84 3.002 1.578.674.604 1.045 1.276 1.045 2.014 0 .47-.169.907-.472 1.31-.54.638-1.214.973-2.058.973-.573 0-1.113-.134-1.585-.436-.54-.302-1.08-.537-1.652-.739a6.814 6.814 0 0 0-1.923-.268 4.97 4.97 0 0 0-2.159.47c-.64.302-1.146.738-1.585 1.242A5.275 5.275 0 0 0 6.19 8.69a6.923 6.923 0 0 0-.337 2.216c0 .772.101 1.511.337 2.216.236.705.574 1.31 1.012 1.813a5.2 5.2 0 0 0 1.585 1.243c.641.302 1.35.47 2.159.47 1.012 0 1.821-.168 2.462-.504.641-.336 1.18-.638 1.585-.906.506-.37 1.08-.571 1.754-.571a2.16 2.16 0 0 1 1.72.806c.371.47.574.973.574 1.544-.034.739-.304 1.377-.843 1.981ZM39.648 20.677c-.54.537-1.18.806-1.99.806-.742 0-1.383-.303-1.956-.873-.54-.571-.81-1.243-.81-1.981a3.641 3.641 0 0 1-.81 1.04c-.37.37-.842.672-1.348.974a9.16 9.16 0 0 1-1.754.739c-.641.201-1.316.268-1.99.268-1.417 0-2.732-.268-3.946-.839-1.215-.57-2.294-1.31-3.205-2.283a10.492 10.492 0 0 1-2.125-3.425 11.418 11.418 0 0 1-.775-4.163c0-1.478.27-2.854.843-4.164.573-1.31 1.315-2.45 2.293-3.424a10.432 10.432 0 0 1 3.44-2.284C26.832.498 28.215.23 29.699.23s2.867.269 4.182.84c1.316.57 2.463 1.309 3.44 2.283.979.973 1.72 2.115 2.294 3.424.574 1.31.844 2.686.844 4.164v7.79c0 .772-.27 1.41-.81 1.947Zm-5.194-11.92c-.236-.671-.54-1.276-.978-1.813a5.097 5.097 0 0 0-1.586-1.209c-.64-.302-1.349-.436-2.158-.436-.81 0-1.518.134-2.159.436a4.734 4.734 0 0 0-1.585 1.21 4.718 4.718 0 0 0-.978 1.812c-.236.672-.338 1.41-.338 2.183 0 .772.102 1.51.304 2.182.203.672.506 1.276.91 1.78.405.503.911.906 1.518 1.208.608.303 1.316.437 2.125.437.81 0 1.552-.134 2.193-.437a5.38 5.38 0 0 0 1.652-1.208 5.518 5.518 0 0 0 1.046-1.78c.236-.671.371-1.41.371-2.182s-.135-1.478-.337-2.183ZM56.242 4.594c-.472.47-1.08.739-1.821.739-.843 0-1.687.1-2.496.302a7.203 7.203 0 0 0-2.193.94c-.64.436-1.146 1.007-1.551 1.645-.405.672-.573 1.477-.573 2.451v7.991c0 .772-.27 1.444-.81 1.981-.54.537-1.214.806-1.99.806s-1.45-.269-2.024-.806c-.573-.537-.843-1.209-.843-1.98V3.283c0-.772.27-1.443.843-2.014a2.758 2.758 0 0 1 2.024-.84c.776 0 1.45.27 1.956.84.54.57.81 1.242.81 2.014a10.36 10.36 0 0 1 1.518-1.477 6.836 6.836 0 0 1 1.551-.94 7.094 7.094 0 0 1 1.754-.504c.64-.1 1.315-.134 2.125-.134.708 0 1.315.235 1.821.739.472.47.742 1.074.742 1.813 0 .738-.37 1.31-.843 1.813ZM86.43 3.486a2.467 2.467 0 0 1-.136.47L80.257 19.87a2.5 2.5 0 0 1-.945 1.175c-.438.269-.91.437-1.45.437-.54 0-1.012-.168-1.416-.47-.439-.303-.709-.706-.911-1.21l-3.238-8.964-3.238 8.965a2.751 2.751 0 0 1-.91 1.208c-.44.303-.911.47-1.417.47a2.46 2.46 0 0 1-1.45-.436c-.439-.269-.742-.671-.945-1.175L58.232 3.956a2.474 2.474 0 0 1-.135-.47c-.033-.168-.033-.302-.033-.47 0-.705.236-1.31.742-1.813.506-.504 1.113-.739 1.821-.739.54 0 1.012.134 1.417.436.404.27.708.672.877 1.176l3.575 9.703 3.474-9.636c.202-.504.472-.907.877-1.209.404-.302.877-.47 1.416-.47.54 0 1.012.168 1.417.47.405.302.708.705.877 1.209l3.474 9.636 3.575-9.67A2.75 2.75 0 0 1 82.516.9a2.43 2.43 0 0 1 1.417-.436c.709 0 1.316.235 1.822.739.472.503.708 1.108.708 1.813.034.168 0 .302-.034.47ZM106.464 15.103c-.573 1.31-1.315 2.451-2.294 3.425a10.433 10.433 0 0 1-3.44 2.283c-1.315.537-2.698.84-4.182.84-1.484 0-2.867-.27-4.183-.84-1.315-.57-2.462-1.31-3.44-2.283a10.377 10.377 0 0 1-2.293-3.425c-.574-1.31-.844-2.686-.844-4.163 0-1.478.27-2.854.844-4.164.573-1.31 1.315-2.45 2.293-3.424a10.431 10.431 0 0 1 3.44-2.284A10.937 10.937 0 0 1 96.548.23c1.484 0 2.867.269 4.182.84 1.315.57 2.462 1.309 3.44 2.283a10.371 10.371 0 0 1 2.294 3.424c.573 1.31.843 2.686.843 4.164 0 1.477-.27 2.887-.843 4.163Zm-5.127-6.346a5.966 5.966 0 0 0-1.012-1.813 5.09 5.09 0 0 0-1.585-1.209c-.64-.302-1.349-.436-2.158-.436-.81 0-1.518.134-2.16.436a4.734 4.734 0 0 0-1.584 1.21 4.718 4.718 0 0 0-.978 1.812c-.237.672-.338 1.41-.338 2.183 0 .772.101 1.51.337 2.182.237.672.54 1.276.979 1.78.438.503.978.906 1.585 1.208.64.303 1.349.437 2.159.437.809 0 1.551-.134 2.158-.437a4.73 4.73 0 0 0 1.585-1.208 5.432 5.432 0 0 0 1.012-1.78c.236-.671.337-1.41.337-2.182s-.101-1.478-.337-2.183ZM135.066 3.486a2.52 2.52 0 0 1-.135.47l-6.038 15.915a2.494 2.494 0 0 1-.944 1.175c-.438.269-.911.437-1.45.437-.54 0-1.012-.168-1.417-.47-.438-.303-.708-.705-.911-1.209l-3.237-8.965-3.238 8.965a2.755 2.755 0 0 1-.911 1.209c-.439.302-.911.47-1.417.47a2.462 2.462 0 0 1-1.45-.437c-.438-.268-.742-.671-.944-1.175l-6.139-15.915a2.52 2.52 0 0 1-.135-.47c-.034-.168-.034-.302-.034-.47 0-.705.237-1.31.742-1.813.506-.504 1.113-.739 1.822-.739.539 0 1.012.135 1.416.437.405.302.709.671.877 1.175l3.576 9.703 3.474-9.636c.202-.504.472-.906.877-1.209.404-.302.876-.47 1.416-.47.54 0 1.012.168 1.417.47.404.303.708.705.877 1.21l3.507 9.602 3.576-9.67c.202-.504.506-.907.91-1.209a2.433 2.433 0 0 1 1.417-.436c.708 0 1.315.235 1.821.738.472.504.709 1.108.709 1.813 0 .202 0 .336-.034.504Z" fill="#00A4FF"/>
  <path d="M139.966 4.413a6.426 6.426 0 0 1 6-4.124h74.112c2.049 0 3.461 2.055 2.727 3.968l-5.094 13.269a6.426 6.426 0 0 1-5.999 4.123H137.6c-2.05 0-3.462-2.055-2.727-3.968l5.093-13.268Z" fill="#0083CC"/>
  <path d="M147.542 15.967v-3.038h2.197c2.034 0 3.146-1.37 3.146-2.996 0-1.641-1.112-3.01-3.146-3.01h-4.529v9.044h2.332Zm1.844-5.072h-1.844V8.956h1.844c.624 0 1.126.353 1.126.977 0 .61-.502.962-1.126.962ZM161.73 15.967l-3.403-9.045h-2.943l-3.403 9.045h2.644l.447-1.302h3.567l.447 1.302h2.644Zm-3.729-3.336h-2.291l1.152-3.404 1.139 3.404ZM170.114 15.967l-1.844-3.322c.854-.299 1.804-1.14 1.804-2.712 0-1.682-1.139-3.01-3.146-3.01h-4.529v9.044h2.332v-3.038h1.193l1.519 3.038h2.671Zm-3.539-5.072h-1.844V8.956h1.844c.624 0 1.126.34 1.126.963 0 .637-.502.976-1.126.976ZM175.584 15.967v-7.01h2.522V6.921h-7.39v2.034h2.536v7.01h2.332ZM187.624 15.967V6.922h-2.346V11.9l-3.662-4.977h-2.4v9.045h2.333v-5.234l3.824 5.234h2.251ZM195.885 15.967v-2.034h-4.299V12.4h4.204v-2.034h-4.204v-1.41h4.299V6.922h-6.631v9.045h6.631ZM204.955 15.967l-1.844-3.322c.854-.299 1.803-1.14 1.803-2.712 0-1.682-1.139-3.01-3.146-3.01h-4.529v9.044h2.333v-3.038h1.193l1.519 3.038h2.671Zm-3.539-5.072h-1.844V8.956h1.844c.623 0 1.125.34 1.125.963 0 .637-.502.976-1.125.976ZM209.567 16.13c2.427 0 3.77-1.207 3.77-3.024 0-3.363-5.112-2.522-5.112-3.634 0-.394.298-.624.976-.624.895 0 1.885.312 2.644.949l1.275-1.75c-.963-.826-2.224-1.26-3.675-1.26-2.319 0-3.593 1.356-3.593 2.874 0 3.485 5.112 2.495 5.112 3.689 0 .447-.488.718-1.275.718a4.097 4.097 0 0 1-2.902-1.193l-1.234 1.817c.909.854 2.184 1.438 4.014 1.438Z" fill="#fff"/>
</svg>
